<svg width="59" height="59" xmlns="http://www.w3.org/2000/svg" xmlns:xlink="http://www.w3.org/1999/xlink"><defs><path id="a" d="M0 .061h58.937V58.23H0z"/></defs><g fill="none" fill-rule="evenodd"><g transform="translate(0 .004)"><mask id="b" fill="#fff"><use xlink:href="#a"/></mask><path d="M21.397.99c-.915.078-2.157.18-3.397.3a.766.766 0 00-.427.202 52.87 52.87 0 00-1.425 1.455c-.112.118-.175.282-.288.399-.126.13-.295.216-.424.342-.815.8-1.619 1.61-2.436 2.406-.574.559-1.17 1.095-1.744 1.653-.76.738-1.505 1.491-2.265 2.23-.93.903-1.872 1.792-2.8 2.698-1.206 1.179-2.403 2.367-3.602 3.553-.426.422-.85.847-1.266 1.277-.086.088-.178.2-.2.313a4.406 4.406 0 00-.067.746A363.588 363.588 0 001 22.548c-.004.611.045 1.223.033 1.833-.024 1.247-.083 2.493-.108 3.74-.02.937-.011 1.876-.01 2.815.003 2.563.005 5.127.016 7.69.003.603.018 1.206.071 1.805.022.245.104.524.253.71.372.462.795.882 1.204 1.313.378.397.763.788 1.147 1.18.52.529 1.044 1.052 1.559 1.585.278.29.527.608.814.888.283.276.611.506.896.78.453.438.883.901 1.331 1.344.19.188.416.34.604.53.551.559 1.085 1.135 1.64 1.69.293.294.62.554.922.84.435.41.864.828 1.29 1.247.96.946 1.917 1.895 2.878 2.841.557.55 1.117 1.096 1.68 1.639.068.064.167.145.245.139.495-.04.982-.06 1.485-.008.667.069 1.347.005 2.02.005.683.001 1.364.008 2.046.02.201.003.402.047.602.045.57-.006 1.14-.038 1.711-.038.328 0 .657.066.985.062 1.341-.018 2.682-.055 4.023-.076a98.59 98.59 0 012.53-.011c1.082.01 2.163.04 3.244.062.225.004.45.026.674.02a171.1 171.1 0 002.148-.062c.484-.017.978.015 1.449-.076.583-.112.916-.645 1.332-1.013.657-.582 1.235-1.251 1.856-1.874.167-.167.38-.287.551-.45.489-.466.964-.946 1.451-1.413.427-.409.871-.8 1.294-1.212.786-.77 1.59-1.523 2.333-2.334.632-.69 1.457-1.2 1.912-2.057.018-.034.067-.05.1-.077.407-.324.839-.623 1.214-.98.676-.645 1.314-1.33 1.977-1.989.342-.34.704-.659 1.054-.99.542-.515 1.058-1.06 1.627-1.542.574-.486.823-1.08.797-1.814-.033-.929-.08-1.858-.093-2.787-.017-1.317-.003-2.634-.013-3.951-.006-.803-.034-1.605-.048-2.408-.01-.548.004-1.097-.02-1.644-.029-.637-.098-1.27-.129-1.907-.038-.798-.055-1.597-.082-2.396-.04-1.166-.09-2.332-.12-3.498-.017-.63.054-1.267-.02-1.889-.065-.548-.053-1.155-.465-1.603-.388-.42-.812-.808-1.214-1.216-.655-.664-1.315-1.325-1.956-2.004-.596-.63-1.156-1.294-1.757-1.917-.763-.79-1.567-1.541-2.326-2.336-.799-.836-1.558-1.709-2.347-2.555-.72-.772-1.458-1.527-2.184-2.294-.675-.713-1.342-1.433-2.016-2.146-.36-.382-.753-.737-1.084-1.142-.47-.574-1.047-.808-1.773-.732-.3.031-.603.05-.904.05-.705 0-1.41-.014-2.116-.026C36.339.94 35.464.907 34.59.911c-2.34.013-4.68.041-7.02.062-.913.008-1.827.013-2.74.016-1.034.003-2.067 0-3.433 0m18.496 57.24c-1.365-.022-2.53-.034-3.695-.061-.956-.023-1.91-.069-2.865-.095-.625-.018-1.25-.03-1.875-.026-2.07.015-4.14.038-6.209.056-.375.004-.75 0-1.125.004-2.189.02-4.377.036-6.566.07-.366.005-.62-.116-.873-.382-.4-.422-.857-.788-1.28-1.187-.408-.385-.803-.784-1.205-1.175-.084-.083-.175-.158-.26-.24-.835-.805-1.69-1.59-2.5-2.422-1.58-1.623-3.13-3.274-4.7-4.907-.475-.494-.969-.97-1.46-1.45-.886-.864-1.78-1.72-2.666-2.586-.64-.625-1.267-1.263-1.905-1.89-.181-.177-.397-.32-.565-.507a.613.613 0 01-.134-.375c-.011-1.05-.012-2.1-.008-3.149.005-1.183.014-2.365.027-3.548.014-1.212.024-2.424.055-3.635.023-.853.11-1.705.112-2.558.003-1.134-.055-2.268-.073-3.403-.005-.323.045-.647.057-.97.005-.127-.038-.255-.035-.382.01-.334.047-.669.045-1.003-.002-.442-.043-.883-.046-1.325-.005-.67.01-1.342.012-2.013.001-.302.003-.605-.016-.906-.03-.483.126-.867.476-1.213.609-.603 1.175-1.25 1.771-1.866 1.322-1.368 2.603-2.776 4.065-4.004.77-.648 1.488-1.363 2.21-2.068a594.757 594.757 0 004.395-4.344c1.222-1.22 2.424-2.46 3.647-3.678.304-.303.65-.564.989-.83.076-.06.2-.082.301-.082.755-.002 1.51.004 2.264.012.878.008 1.756.022 2.633.031.958.01 1.915.014 2.873.025 1.08.012 2.16.034 3.239.041 1.364.01 2.729 0 4.093.012 1.502.013 3.004.054 4.506.058.828.002 1.655-.038 2.482-.076.586-.027 1.17-.082 1.755-.12.05-.003.116.01.148.043.256.251.51.503.755.766.377.403.747.814 1.117 1.224.208.23.41.467.615.701.734.84 1.462 1.684 2.2 2.519 1.106 1.248 2.206 2.5 3.333 3.728.534.582 1.128 1.108 1.688 1.667.104.103.16.254.262.361a181.752 181.752 0 004.02 4.105c.709.7 1.4 1.421 2.15 2.076.403.353.48.782.487 1.239.028 2.072.032 4.144.039 6.216.002.542-.025 1.084-.027 1.627-.004.87-.084 1.752.023 2.61.172 1.373.082 2.745.132 4.117.021.57.012 1.143.04 1.713.018.356.095.708.115 1.063.008.15-.063.304-.096.456-.012.052-.04.122-.019.157.197.317.054.62.01.943-.06.427-.034.866-.039 1.3-.005.454.016.91-.013 1.362-.033.535-.295.952-.701 1.306-.32.28-.58.63-.882.933-.48.484-.976.952-1.46 1.432-.345.343-.676.7-1.024 1.04-.22.216-.464.406-.686.62-.735.71-1.466 1.427-2.197 2.142-.714.696-1.419 1.402-2.142 2.088-.217.206-.5.34-.724.54-.511.457-1.01.928-1.503 1.403-.364.351-.706.726-1.07 1.077-.672.647-1.352 1.285-2.03 1.925-.485.456-.967.913-1.459 1.36-.613.556-1.235 1.103-1.853 1.654-.072.064-.162.116-.214.193-.279.406-.732.406-.94.462" fill="#000" mask="url(#b)"/></g><path d="M36.649 55.1c.766 0 1.532-.004 2.298 0 .341.002.71.076.828-.393.006-.023.051-.035.076-.056.503-.413 1.024-.807 1.502-1.247.595-.547 1.151-1.138 1.732-1.701.738-.716 1.488-1.42 2.226-2.135.339-.328.652-.683.995-1.007.562-.53 1.146-1.035 1.707-1.565.576-.544 1.138-1.104 1.702-1.66.415-.41.825-.824 1.236-1.238.551-.553 1.096-1.114 1.653-1.661.366-.359.754-.695 1.123-1.05.356-.343.695-.704 1.051-1.048.366-.354.818-.641.788-1.253-.012-.246.048-.494.058-.741.013-.307.006-.613.011-.92.001-.074.026-.149.026-.224.006-1.203.008-2.407.013-3.61.003-.747.016-1.494.011-2.24-.005-.779-.02-1.558-.043-2.337-.023-.745-.063-1.489-.091-2.233-.004-.085.019-.17.028-.256.018-.16.055-.32.048-.478-.017-.407-.073-.813-.078-1.22-.012-1.035.009-2.072-.009-3.108-.013-.795-.06-1.59-.104-2.383a.494.494 0 00-.128-.28c-1.285-1.402-2.573-2.8-3.865-4.194a43.382 43.382 0 00-1.24-1.285c-.58-.576-1.181-1.13-1.756-1.712-.354-.358-.67-.755-1.015-1.122-.442-.47-.912-.915-1.343-1.396-.766-.852-1.488-1.745-2.27-2.581-.703-.75-1.46-1.45-2.197-2.168-.35-.343-.696-.695-1.071-1.01-.153-.129-.377-.243-.569-.244-2.42-.017-4.839-.018-7.258-.01-2.466.01-4.932.036-7.398.05-1.123.007-2.247.003-3.37.006-.698.002-1.4.043-2.096.005-.93-.052-1.589.394-2.181 1.037-.506.55-1.03 1.085-1.56 1.612-.427.425-.884.821-1.314 1.245-.817.806-1.625 1.622-2.435 2.435-.29.29-.57.59-.865.874-.586.562-1.19 1.106-1.768 1.675-.758.748-1.495 1.517-2.248 2.27-.782.78-1.569 1.556-2.36 2.327-.5.49-1.021.958-1.514 1.455-.161.162-.358.376-.375.58a37.968 37.968 0 00-.093 2.51c-.015 1.106-.01 2.212-.01 3.318 0 .576.029 1.153.003 1.727-.03.676.133 1.367-.134 2.028-.018.045 0 .107.006.16.041.36.108.72.118 1.082.012.396-.038.793-.041 1.19-.002.226.052.452.049.678-.005.287-.065.574-.06.861.009.647.049 1.294.063 1.941.004.158-.064.318-.06.475.01.45.053.897.06 1.346.002.212-.072.425-.07.638.007.7.065 1.402.042 2.101-.024.729.114 1.358.69 1.86.478.415.932.86 1.377 1.31.738.748 1.46 1.513 2.19 2.268.507.525 1.011 1.053 1.53 1.566.58.573 1.18 1.126 1.76 1.699.426.419.827.863 1.253 1.283.703.692 1.425 1.365 2.123 2.063.624.624 1.214 1.282 1.84 1.904.615.61 1.26 1.19 1.886 1.79.282.27.578.415.995.407 1.412-.025 2.824-.002 4.236.008.29.002.582.047.872.045.992-.01 1.984-.039 2.976-.043.586-.003 1.172.04 1.759.039.73-.002 1.461-.034 2.192-.042 1.098-.011 2.196-.014 3.293-.018.855-.002 1.71 0 2.564 0M55.95 18.94c0 1.211-.01 2.424.004 3.636.006.535.088 1.07.085 1.604-.005.853-.07 1.707-.075 2.56-.003.58.07 1.16.078 1.74.004.287-.09.575-.086.86.01.472.083.94.095 1.412.024.98.032 1.961.035 2.942.006 1.488-.009 2.976.008 4.464.005.437.082.875.135 1.312.032.258-.042.428-.3.536-.688.287-1.083.927-1.61 1.406-.92.838-1.8 1.723-2.688 2.598-.74.73-1.463 1.478-2.206 2.206-1.032 1.013-2.075 2.014-3.115 3.019-.722.699-1.449 1.393-2.171 2.093-1.029.995-2.037 2.013-3.093 2.98-.364.332-.672.663-.838 1.13-.056.156-.15.286-.397.205-.203-.066-.445-.01-.669-.017-.711-.02-1.423-.054-2.134-.064-.885-.011-1.77 0-2.654-.005-1.476-.007-2.951-.03-4.427-.027-.963.002-1.925.044-2.888.054-.555.005-1.11-.028-1.664-.024-.606.004-1.211.04-1.817.045-.3.003-.601-.037-.902-.048-.17-.007-.341.01-.512.01-.21 0-.42-.009-.63-.009h-2.63c-.283 0-.571.035-.845-.012-.17-.03-.343-.158-.47-.287-.61-.62-1.201-1.26-1.807-1.885-.643-.663-1.29-1.32-1.942-1.974-.372-.371-.762-.724-1.135-1.093-.591-.585-1.173-1.179-1.763-1.764-.885-.877-1.778-1.745-2.657-2.627-.834-.837-1.655-1.687-2.482-2.53-.668-.68-1.33-1.367-2.01-2.034-.32-.313-.678-.588-1.018-.88-.167-.144-.196-.287-.169-.531.075-.67.063-1.35.083-2.027.025-.823.057-1.647.066-2.47.005-.376-.056-.753-.054-1.128.004-.55.055-1.098.057-1.647.007-2.07-.003-4.14.006-6.21.005-.934.054-1.867.057-2.801.003-.718-.045-1.435-.051-2.152-.003-.392.067-.785.047-1.175-.027-.543-.114-1.083-.158-1.625a.442.442 0 01.108-.308c1.001-1.03 2-2.061 3.023-3.07.355-.349.785-.62 1.155-.955.355-.323.674-.688 1.017-1.025.214-.21.45-.398.666-.607 1.07-1.038 2.133-2.08 3.203-3.117.332-.323.685-.625 1.014-.951.435-.43.848-.882 1.283-1.312.516-.511 1.053-1.001 1.567-1.513.407-.406.798-.829 1.19-1.25.527-.565 1.038-1.145 1.58-1.696.09-.092.299-.099.451-.092.293.013.585.097.877.092.43-.006.86-.073 1.291-.096.582-.03 1.164-.058 1.746-.058.565 0 1.129.052 1.693.05.545 0 1.089-.05 1.634-.062.566-.013 1.132-.01 1.698-.011.919-.001 1.838-.01 2.756.002 1.163.016 2.326.063 3.489.074 2.094.02 4.187.023 6.281.034.032 0 .078.018.093.003.374-.377.433.005.608.223.441.548.91 1.076 1.382 1.598.569.63 1.144 1.255 1.732 1.868.917.955 1.849 1.895 2.769 2.847.872.901 1.747 1.8 2.601 2.717.604.649 1.167 1.334 1.764 1.989.318.35.672.666 1.001 1.006.553.571 1.09 1.16 1.652 1.722.328.328.695.618 1.04.93.283.255.57.508.83.785.091.097.108.265.158.4l-.041.016" fill="#000"/><path d="M46.848 22.622c.091.41.176.454.537.303l-.537-.303M29.237 11.769l-.167.094c.067.132.132.266.211.391.004.007.13-.064.199-.099l-.243-.386m-3.66 7.654l.044.172.433-.065-.084-.279-.394.172m-6.035 10.085v-.884c-.316.235-.312.532 0 .884m8.967-17.793c-.178.253-.149.477.086.663.278-.212.263-.324-.086-.663m3.224-.285c-.051.183-.11.34-.132.501-.007.056.07.15.13.178.038.018.147-.038.173-.088.117-.224.085-.422-.17-.59m-2.26 5.965l.069.083h.684l.035-.076c-.195-.098-.385-.21-.59-.278-.033-.01-.13.175-.198.27m.404-5.315l.094-.041c-.01-.168.013-.347-.042-.499-.025-.07-.199-.096-.31-.114-.02-.003-.108.151-.088.185.1.165.228.314.346.469m.539.188c.242-.237.242-.237.092-.849-.237.058-.305.586-.092.849m10.763 11.16c-.32-.015-.624-.039-.927-.036a.789.789 0 00-.33.106c-.04.02-.044.105-.065.161.054.015.112.05.16.04.383-.084.765-.178 1.162-.272m-8.558-4.111l.027.15c.207-.02.43-.001.613-.077.093-.039.114-.25.167-.383l-.07-.037-.737.347m9.7 15.784c.316-.443.375-.644.228-.72-.268-.14-.47-.028-.712.43l.484.29M28.02 12.068c.048-.307-.133-.406-.377-.398-.354.012-.15.313-.193.472-.02.077.136.285.226.294.23.022.393-.102.344-.368m15.262 22.668c-.224-.01-.496.224-.427.442.059.186.27.323.413.482.093-.139.189-.275.277-.417.02-.032-.003-.09.015-.125.168-.32-.021-.374-.278-.382m-25-3.71l-.127.023c-.05.143-.134.285-.14.43-.012.281.235.608.373.526.169-.1.419-.36.383-.453-.081-.208-.317-.355-.49-.527m-7.345-4.9c.213-.282.39-.51.555-.746.023-.033-.003-.149-.036-.164-.31-.149-.322-.345-.052-.606h-.554l.087 1.516m32.599-2.192c.067-.169.156-.33.189-.504.01-.058-.12-.207-.185-.207a8.262 8.262 0 00-.924.063c-.06.006-.163.09-.156.115.018.072.068.166.13.191.293.119.594.217.946.342m-.255 9.184c-.144-.149-.332-.306-.491-.12a1.768 1.768 0 00-.384.756c-.02.096.264.256.424.4l.45-1.036m.92.274l-.105-.136c-.175.042-.424.027-.51.139-.142.184-.187.447-.254.681-.018.062.01.173.057.21.128.098.278.17.45.269l.362-1.163m-14.746-14.85c.264-.47.42-.471.712-.056.028.04.21.04.245-.004.216-.266.186-.474-.108-.864-.068.08-.127.216-.2.224-.264.03-.546.07-.796.006-.193-.05-.28.02-.324.142-.029.08.02.226.085.294.098.103.24.165.386.259m-9.994 9.205l-.014-.134c-.442-.457-.962-.752-1.684-.815l.287.525.703-.09c.088.305-.043.38-.256.419-.079.014-.145.103-.216.158.083.067.18.202.248.189.315-.061.622-.164.932-.252m9.639-11.492l.09-.057c-.089-.052-.172-.128-.268-.15-.161-.038-.332-.03-.496-.06-.254-.048-.494.168-.387.385.14.284.325.548.506.81.092.132.184.114.311-.009.267-.257.399-.536.244-.919m1.328-.376c-.369.548-.215 1.21.414 1.728.043-.06.105-.112.124-.178.108-.378.223-.756.296-1.142.016-.086-.11-.259-.207-.295-.196-.072-.416-.079-.627-.113M18.05 29.04c-.03.132-.093.27-.089.406.02.532.342.933.675 1.288.283.302.465.228.657-.148.054-.105.109-.21.158-.317.093-.206.102-.343-.18-.43a.67.67 0 01-.386-.397c-.062-.226-.18-.29-.372-.317-.127-.018-.252-.046-.463-.085m18.276 1.79c.074-.214.299-.529.219-.702-.222-.484-.567-.91-.873-1.353-.04-.057-.139-.07-.21-.105l-.076.045c.29.367.179.68-.077.974a.702.702 0 00-.073.107c-.179.305-.091.542.235.669.25.097.495.21.855.366m.585.416c.056.791.449 1.45.855 2.102.031.05.163.1.181.083.063-.062.127-.151.135-.235.058-.594.037-1.2.295-1.76.02-.043-.002-.147-.032-.16-.059-.026-.17-.037-.2-.002-.064.076-.091.183-.132.278-.08.182-.146.372-.245.543-.03.052-.15.078-.222.069-.033-.004-.08-.123-.074-.185.022-.234.067-.465.097-.698.039-.292-.183-.391-.388-.417-.249-.032-.28.177-.27.382m-6.234 13.457c0-.211-.02-.394.008-.57.014-.082.123-.149.188-.223.065.062.157.113.19.19.07.16.11.335.162.505l.104-.008.067-.532.592.12c-.025-.139-.008-.354-.08-.391-.236-.12-.512-.159-.758-.263-.143-.06-.363-.188-.362-.284.002-.206.124-.411.197-.616.091.038.219.051.266.12.076.11.087.264.15.387.023.047.11.074.172.083.026.003.081-.062.09-.102.05-.24-.403-.76-.644-.732a8.043 8.043 0 00-.728.129c-.15.032-.255.14-.132.274.24.262.304.5.008.756-.012.01-.008.042-.006.063.032.288.046.578.102.86.041.204.187.307.414.234M41.32 31.98c-.257.053-.46.119-.666.13a4.678 4.678 0 01-.738-.035c-.3-.03-.496.102-.526.392-.048.47-.061.943-.074 1.415-.002.07.072.197.116.2.077.004.176-.051.235-.111.188-.191.358-.399.54-.595.358-.384.724-.762 1.076-1.152.045-.05.026-.158.037-.244m.526-1.808c-.403.146-.747.35-1.105.383-.55.05-.849.267-.922.826-.035.26.041.379.314.34.39-.054.781-.129 1.174-.148.57-.029.707-.165.632-.714-.013-.096.007-.197-.007-.292-.017-.125-.053-.247-.086-.395m-1.76 8.738c-.133-1.453-.212-2.893.231-4.3-.452-.122-1.01.263-1.015.69-.009.764-.018 1.527.182 2.279.126.474.255.938.603 1.331m-12.675 3.553c-.379-.005-.516.212-.552.455a1.183 1.183 0 01-.424.766c-.095.081-.11.255-.16.387.118.004.238-.002.355.015.087.013.17.055.254.084-.036.08-.065.163-.11.237-.067.112-.144.218-.234.35.3.025.356-.027.44-.257.054-.146.133-.29.233-.408.046-.054.175-.066.256-.048.033.007.042.14.057.218.038.192.072.385.107.578l.144.004c.058-.148.122-.293.173-.443.164-.485.341-.966.47-1.46.034-.13-.049-.333-.144-.448-.262-.314-.429.063-.675.093.075.127.143.21.18.307.104.267.031.508-.165.528-.118.013-.322 0-.349-.062-.058-.134-.05-.311-.026-.463.021-.137.1-.265.17-.433m11.051-2.313l-.144.023c-.055.572-.16 1.142-.024 1.722.015.065.088.116.133.175.083.111.167.222.248.335.284.396.554.802.854 1.185.178.226.49.133.564-.154.023-.091.04-.213 0-.287-.153-.282-.33-.55-.5-.822-.099-.158-.213-.308-.296-.474-.284-.565-.558-1.135-.835-1.703M31.59 14.984c-.085-.198-.1-.32-.17-.381-.298-.267-.63-.488-1.046-.495-.368-.007-.744-.021-1.1.048-.422.082-.874.165-1.149.555-.065.093-.04.25-.055.376.12-.023.263-.013.358-.076.32-.21.646-.207.97-.056.251.117.267.36.246.609-.027.304-.055.61-.056.914 0 .081.097.163.15.244.054-.075.164-.16.154-.224-.078-.495.111-.93.238-1.39.099-.353.284-.326.545-.271.268.056.542.088.915.147m8.485 24.106c-.335.244-.457.217-.678-.167-.118-.203-.215-.422-.354-.61-.07-.094-.211-.137-.32-.203-.02.134-.09.288-.048.397.194.506.414 1.002.636 1.496.311.692.607 1.392.959 2.063.196.373.488.696.744 1.036.141.188.307.156.425-.014.093-.133.136-.3.225-.506-.364.099-.51-.005-.586-.305-.05-.195-.1-.393-.183-.575-.23-.514-.518-1.007-.701-1.536-.116-.335-.085-.721-.119-1.076m3.252-7.95c-.433-.234-.452-.233-.713.144-.232.336-.456.678-.685 1.016-.215.318-.435.634-.65.954-.086.13-.194.256-.238.4-.125.406-.225.819-.326 1.23-.016.065-.012.176.025.202a.3.3 0 00.233.03c.253-.08.386-.279.483-.52.278-.695.562-1.387.866-2.07.047-.107.233-.242.324-.223.473.102.935.252 1.403.38.104.029.214.038.41.07-.089-.337-.12-.618-.238-.855-.085-.171-.274-.305-.445-.406-.04-.023-.19.167-.303.235-.071.042-.17.039-.256.056-.017-.09-.064-.188-.046-.27.03-.13.103-.25.156-.373M21.382 42.295c.086-.945.486-1.81.226-2.743-.02-.071.068-.173.106-.26.081.039.205.058.234.12.074.163.159.348.147.518-.037.51-.121 1.015-.178 1.523-.016.147-.006.296.004.444 0 .007.16.026.169.006.06-.14.102-.288.147-.434.006-.02-.003-.043-.002-.065.026-.523.078-1.046.07-1.568-.005-.364-.04-.743-.153-1.085-.128-.39-.279-.745-.093-1.157.1-.223.182-.465.208-.706.018-.157-.038-.433-.134-.471-.24-.096-.208.195-.288.32-.248.394-.258.917-.645 1.234-.233.191-.21.426-.156.674.021.095.075.188.073.28-.025.773-.049 1.546-.095 2.318-.024.382-.043.746.36 1.052m7.247-23.729c-.1.136-.174.235-.245.336-.175.246-.31.538-.531.729-.217.186-.172.285-.004.426.382.32.843.43 1.322.481.752.08 1.44-.169 2.122-.434.162-.063.32-.138.479-.207l.016-.118c-.781.042-.693-.682-1.009-1.063-.76.884-1.464.665-2.15-.15m11.425 9.376c-.01.077-.03.139-.025.199.049.562.095 1.125.156 1.686.024.225.26.357.487.277.33-.115.666-.224.98-.376.477-.234.903-.567 1.112-1.06.202-.474.211-.998.054-1.504-.073-.235-.47-.405-.64-.286a.731.731 0 01-.93-.083c-.09-.086-.25-.192-.343-.165-.398.114-.656.395-.808.812.138-.016.246-.054.34-.033.192.04.398.08.557.183.139.09.318.271.312.404-.015.334-.1.67-.206.99-.048.145-.122.364-.384.297-.235-.06-.233-.237-.204-.409.026-.153.12-.295.142-.448.014-.096-.016-.255-.08-.294-.149-.091-.331-.126-.52-.19m-14.798-3.076c.494-.213.905-.255 1.304.044.073.056.186.058.281.085.025-.098.08-.201.068-.295-.02-.156-.08-.306-.126-.458-.145-.478-.285-.958-.439-1.433-.138-.428-.29-.852-.439-1.277-.1-.29-.199-.581-.307-.868-.068-.18-.204-.235-.391-.189-.279.068-.559.13-.84.187-.212.043-.266.161-.183.351.142.321.29.64.433.96.122.272.298.534.347.82.085.485.078.986.132 1.478.022.2.103.391.16.595m18.499 12.835c.09-.337.177-.61.232-.888.032-.156.074-.37-.003-.47-.097-.128-.302-.194-.473-.238-.298-.076-.608-.103-.907-.173-.373-.088-.738-.215-1.112-.296-.385-.082-.64.046-.676.29-.069.465-.15.93-.215 1.395-.036.26-.065.522-.071.784-.003.098.071.198.109.297.041.11.123.225.113.33-.047.47.27.82.382 1.237.043.156.198.282.304.425.312-.279.313-.344.179-.566a1.534 1.534 0 01-.184-.523c-.09-.525-.135-1.06-.243-1.582-.103-.497-.174-.983 0-1.475.047-.136.11-.267.167-.401l.151.025c.008.179.021.358.024.537a14.76 14.76 0 00.469 3.517c.014.057.13.126.194.12.062-.004.16-.093.166-.152.02-.222.03-.45 0-.67-.053-.393-.157-.779-.206-1.172a13.213 13.213 0 01-.104-1.383c-.002-.12.114-.267.216-.353.056-.048.26-.027.285.02.053.105.033.247.045.373.046.48.09.959.142 1.437.002.026.062.046.144.101l.296-1.724c.65.203.181.81.576 1.178m1.58-17.366l-.079-.14c-.124.04-.26.058-.37.121-.354.2-.68.46-1.05.62-.626.27-1.296.116-1.949.105-.493-.009-.965-.186-1.481-.09-.545.103-1.113.12-1.67.11-.799-.015-1.597-.1-2.396-.122-.13-.003-.31.134-.386.257-.175.287-.306.603-.444.912-.04.09-.093.224-.055.288.039.065.183.1.277.093.312-.024.624-.067.935-.116.515-.081 1.013-.128 1.545.003.5.122 1.041.124 1.56.095.442-.024.876-.228 1.317-.241a9.403 9.403 0 001.827-.226c.342-.079.716-.026 1.074-.005.104.006.216.09.302.165a4.745 4.745 0 001.624.915c.165.055.362.009.565.009-.166-.181-.31-.31-.41-.465-.031-.046.027-.211.088-.248.169-.1.361-.16.544-.237l.454.17.046-.082c-.068-.061-.129-.133-.205-.182-.286-.185-.606-.33-.859-.551-.326-.287-.692-.393-1.105-.434-.099-.01-.187-.124-.28-.19.068-.089.124-.191.207-.264.115-.102.249-.18.374-.27m-12.814-6.47c0 .182.023.288-.004.378-.172.569-.175.567.399.549.018 0 .037.018.061.03.122.362-.202.364-.387.461-.245.128-.26.2-.066.374.07.062.16.209.135.247-.054.082-.177.117-.27.175-.1.062-.24.105-.291.196-.394.7-.361 1.49-.425 2.256-.004.054.074.166.105.163.206-.02.433-.02.607-.113.222-.12.416-.305.594-.49.334-.347.656-.708.97-1.075a3.32 3.32 0 00.803-1.784c.1-.822-.135-1.588-.375-2.353-.166-.53-.38-1.044-.774-1.447-.213-.218-.466-.395-.7-.59-.075.511-.089.95-.07 1.387.01.214-.055.332-.265.359-.251.032-.503.058-.843.097 0 .252-.052.533.014.782.068.253.253.473.396.725l.386-.326m-4.703-1.095c-.073.019-.173.059-.276.066-.228.016-.457.03-.684.017-.222-.013-.258-.175-.205-.354.139-.466.288-.93.432-1.39.435-.167.897.23 1.424-.058-.16-.085-.26-.131-.352-.19-.417-.266-.812-.316-1.17.103-.034.039-.09.084-.134.083-.353-.005-.534.26-.737.477-.206.22-.39.462-.573.702-.278.362-.548.709-.707 1.167-.231.67-.21 1.338-.184 2.01.011.3.125.61.251.89.211.466.454.92.713 1.363.385.656.798 1.288 1.569 1.568.34.123.435.087.437-.266.002-.521.014-1.043-.01-1.564-.01-.203-.093-.407-.166-.602a3.857 3.857 0 00-.273-.576.907.907 0 00-.24-.24c-.085-.065-.184-.109-.277-.162.074-.087.158-.169.22-.264.054-.083.116-.18.119-.273.005-.182-.028-.366-.045-.549l.13-.06-.31-.176.017-.113c.11-.034.222-.06.326-.105.086-.038.237-.12.23-.146-.126-.465.111-.409.41-.316.09.028.246.015.294-.043.049-.061.023-.204-.004-.302-.06-.224-.142-.443-.225-.697m-3.742 9.648c-.125-.299-.227-.57-.35-.83-.212-.445-.396-.576-.817-.511-.265.04-.525.143-.775.247-.456.19-.902.402-1.415.359-.426-.035-.855-.11-1.28-.089-.573.028-1.148.106-1.714.208-.5.09-.985.267-1.486.358-.16.029-.357-.076-.52-.157-.138-.07-.242-.26-.378-.279-.528-.073-1.064-.102-1.597-.139-.044-.003-.13.062-.132.099-.003.058.037.159.08.171.18.053.377.059.552.125.118.046.208.164.31.25-.08.094-.142.22-.243.277-.853.482-1.714.95-2.572 1.423l.03.146c.097.013.213.067.284.032.255-.127.486-.308.745-.42.133-.058.308-.014.464-.015-.064.107-.103.252-.196.316-.273.188-.573.336-.851.517-.088.057-.141.169-.21.256.117.018.24.067.35.046.108-.02.205-.11.304-.173.204-.13.404-.267.61-.394.166-.102.353-.226.502-.013.02.03-.194.246-.32.351-.142.117-.307.206-.461.307l.093.144c.527-.323 1.097-.594 1.57-.983.666-.546 1.366-.926 2.24-.89.731.029 1.46.091 2.192.114.31.01.639.01.927-.084.652-.213 1.299-.381 1.994-.402.596-.019 1.19-.143 1.783-.23.096-.015.184-.086.287-.137M39.8 30.292c-.023-.3-.006-.598-.075-.876-.197-.788-.265-1.565-.006-2.355.24-.73 1.25-1.527 1.95-1.496a3.24 3.24 0 011.885.684.7.7 0 01.217.256c.09.21.166.427.218.65.06.26.2.576.11.782-.342.78-.941 1.363-1.626 1.861-.085.062-.126.21-.141.325-.005.031.152.108.241.125.358.071.724.147.928-.29.011-.024.058-.03.08-.051.232-.222.494-.421.686-.674.632-.835.474-1.845.565-2.798.004-.046-.036-.103-.068-.144-.32-.403-.608-.839-.975-1.193-.398-.386-.865-.768-1.45-.752-.832.022-1.673.015-2.484.295-.795.274-1.236.86-1.49 1.609a9.78 9.78 0 00-.354 1.418c-.048.266-.064.57.02.818.1.302.294.585.495.838.203.256.45.482.705.689.146.119.344.172.569.279M21.268 43.527l-.09-.06c-.065.066-.151.123-.193.203-.134.254-.244.521-.378.776-.064.12-.143.244-.246.328-.172.14-.377.05-.394-.17a.687.687 0 01.078-.368c.173-.308.392-.591.549-.906.067-.136.027-.327.035-.493-.138.104-.278.205-.412.313-.03.025-.037.078-.062.113-.253.36-.497.728-.768 1.074-.07.088-.225.108-.341.159.006-.14-.04-.312.025-.412a19.1 19.1 0 01.932-1.312c.214-.275.235-.435-.006-.583-.146.131-.118.51-.507.352.02-.1.023-.207.06-.3.154-.383.333-.756.475-1.142.274-.74.34-1.51.266-2.292-.023-.232-.142-.385-.411-.412a36.011 36.011 0 01-1.772-.218c-.466-.07-.555-.004-.552.48.003.61.002 1.219.01 1.828.006.444-.012.892.043 1.33.085.673.017 1.376.341 2.01.009.016-.003.042-.001.064.042.607.155 1.182.69 1.57.103.075.216.142.306.23.373.371.73.758 1.112 1.12.16.15.366.254.55.379l.08-.066c-.157-.632.1-1.197.235-1.785.137-.599.232-1.207.346-1.81m-1.402-8.312c-.08.004-.163-.002-.243.013-.483.088-.964.196-1.45.265-.131.018-.38-.047-.4-.121-.062-.23.174-.188.303-.22.313-.076.63-.131.944-.207.06-.015.116-.081.154-.137.012-.017-.033-.097-.07-.118-.321-.19-.655-.36-.968-.563-.141-.092-.247-.24-.358-.371-.01-.01.08-.139.098-.133.156.054.313.113.457.195.398.226.784.472 1.188.686.062.033.263-.042.275-.095.07-.31.128-.629.14-.946.008-.195-.075-.392-.11-.59-.049-.286-.231-.353-.472-.2a2.3 2.3 0 01-.55.237c-.432.134-.495.088-.55-.373-.082 0-.167-.006-.252.001-.315.028-.4-.167-.443-.43-.125-.761-.208-1.536-.414-2.275-.118-.425-.105-.755.155-1.079.124-.154.29-.275.434-.413.08-.077.157-.157.236-.236a118.26 118.26 0 00-.068-.095c-.176.061-.349.15-.53.171-.095.011-.204-.096-.308-.15.067-.084.119-.192.204-.244.096-.058.222-.064.358-.098-.028-.232-.039-.456-.09-.671-.013-.057-.162-.133-.23-.117-.567.129-.973.486-1.156 1.025-.246.727-.048 1.436.251 2.106.125.28.348.516.529.77.258.366.267.74-.05 1.033-.233.216-.458.414-.533.735-.007.03-.024.076-.046.083-.302.093-.26.366-.296.588-.018.112.052.238.034.35-.112.713.171 1.336.449 1.95.17.378.37.764.643 1.07.278.311.656.535 1 .784a.794.794 0 00.377.161c.461.035.929.084 1.386.04a1.39 1.39 0 00.76-.344c.675-.625.86-1.486.996-2.352.03-.185-.006-.39-.056-.573-.017-.063-.235-.142-.248-.125-.176.228-.393.45-.478.714-.147.458-.325.855-.703 1.185-.4.349-.445.392-.815.002-.051-.054-.056-.221-.01-.283.15-.206.333-.388.526-.605m-4.164-2.88c.11-.125.244-.24.333-.385.143-.23.307-.524.101-.75-.366-.4-.418-.925-.64-1.38-.323-.665-.382-1.371-.139-2.076.224-.646.772-.978 1.34-1.268.206-.105.45-.28.64-.24.586.123 1.197.252 1.716.533.51.276 1.2.552.954 1.4-.012.04 0 .087 0 .13 0 .435.007.869 0 1.303a1.61 1.61 0 01-.061.44c-.114.373-.246.739-.36 1.076.19.137.352.267.528.375.058.036.185.05.224.013.24-.226.493-.447.689-.71.406-.546.594-1.17.626-1.859.037-.776-.044-1.533-.368-2.232-.3-.649-.808-1.11-1.45-1.463-.823-.454-1.69-.426-2.568-.38-.247.012-.51.096-.73.215-.469.253-.926.533-1.365.836-.28.193-.562.414-.765.681-.57.754-.684 1.65-.699 2.566-.022 1.379.626 2.737 1.994 3.175M27.01 25.6c-.38.093-.686.174-.995.24-.176.038-.416-.008-.519.094-.085.084-.003.33-.012.504-.02.408-.075.817-.07 1.224.007.777.056 1.553.07 2.33.012.76-.008 1.52.005 2.28.013.857.061 1.714.066 2.57.004.538-.051 1.076-.065 1.614-.006.214.043.43.04.643-.009.82-.082 1.644-.027 2.46.044.636.24 1.288.86 1.621.284.152.682.255.975.177.299-.079.144-.49.176-.758a.431.431 0 00-.007-.13c-.131-.693-.128-1.385-.095-2.091.047-.985-.048-1.976-.039-2.965.014-1.52-.084-3.033-.204-4.548-.11-1.385-.113-2.78-.158-4.169-.01-.345-.001-.691-.001-1.096m7.824-5.192c-.317-.105-.644-.23-.981-.314-.097-.024-.267.042-.328.123-.346.46-.543.988-.633 1.559-.087.558-.168 1.12-.283 1.672-.161.774-.353 1.533-.342 2.34.01.681-.112 1.366-.194 2.046-.083.691-.222 1.378-.278 2.07-.07.873-.09 1.75-.113 2.625-.015.54.025 1.082 0 1.622-.033.73-.18 1.463-.143 2.188.05.959-.167 1.91.02 2.877.112.585.007 1.211.011 1.819a.51.51 0 00.109.276c.015.02.15-.03.216-.072.19-.119.402-.222.55-.383.178-.192.38-.42.428-.661.115-.59.172-1.195.206-1.796.033-.577-.007-1.157.01-1.735.028-1.028.086-2.056.113-3.084.046-1.745-.078-3.493.192-5.235.14-.902.138-1.829.162-2.745.032-1.25.382-2.432.707-3.618.142-.522.367-1.02.57-1.574m8.508 20.808c.288-.284.565-.429.421-.839-.05-.143.084-.358.154-.532.011-.029.13-.035.188-.016.027.01.039.108.03.163-.02.138-.056.275-.086.412l.1.066c.164-.155.318-.325.496-.462.241-.187.345-.409.35-.722.004-.212.108-.428.193-.63.029-.069.139-.102.211-.152.03.073.086.145.087.218.003.147-.023.294-.038.443.183-.024.613-.445.647-.632.073-.408.125-.82.222-1.223.04-.167.175-.311.278-.484.393.439-.024.846.06 1.296.34-.392.638-.731.93-1.075a.26.26 0 00.05-.147c.026-.525.046-1.05.073-1.575.016-.322.052-.644.061-.967.01-.367 0-.735-.001-1.103v-2.794l-.304-.023c-.086-.477.001-.656.437-.901 0-.285.006-.578-.004-.87-.003-.076-.057-.15-.088-.226l-.21.095-.243.114-.069-.07c.112-.272.16-.608.35-.802.356-.363.188-.768.264-1.156-.532-.049-.59-.154-.383-.636.033-.076.102-.137.132-.214.066-.17.161-.344.166-.518.012-.419-.043-.84-.031-1.258.014-.492-.11-.618-.591-.472-.526.16-1.033.116-1.545-.047a.469.469 0 00-.324.013c-.434.224-.498.2-.572-.265-.468-.024-.468-.024-.615.388l-.16.442c.47.589.943 1.122 1.349 1.703.503.72.445 1.525.238 2.339-.083.327-.232.717-.127.993.138.367.022.595-.116.879-.062.126-.047.289-.08.432-.014.061-.072.167-.09.163-.085-.018-.222-.056-.233-.11-.027-.128.003-.27.015-.405.008-.08.026-.16.05-.306-.29.272-.517.477-.733.696-.043.043-.073.156-.047.2.12.212.262.413.399.615.277.408.588.798.64 1.317.05.5.088 1.003.157 1.5.072.516.05 1.025-.145 1.502-.248.607-.57 1.184-.816 1.792a34.6 34.6 0 00-.754 2.103c-.147.444-.255.902-.367 1.356-.024.095.01.203.024.392M27.777 21.162c0 .208-.033.449.006.676.105.596.253 1.185.36 1.781.084.466.124.94.2 1.407.047.284.164.56.18.844.03.52.013 1.042.004 1.563-.012.764-.063 1.527-.045 2.29.026 1.103.101 2.205.151 3.308.008.183-.014.367-.007.55.033.854.09 1.707.105 2.561.018 1.03.003 2.061.003 3.092 0 .417.008.834-.001 1.25-.006.272-.034.542-.056.812-.026.316.083.435.399.437.15.001.301.013.452.02.477.024.615-.112.632-.586.011-.308.047-.616.073-.923.05-.597.122-1.194.149-1.792.021-.487-.028-.978-.016-1.466.025-1.021.067-2.042.106-3.063.023-.61.044-1.222.082-1.832.022-.356.103-.71.108-1.065.016-.967.003-1.934.007-2.9 0-.126.055-.252.054-.377-.003-.395-.019-.79-.031-1.185-.004-.129-.031-.26-.015-.386.059-.468.144-.932.194-1.4.042-.384.02-.776.078-1.156.07-.465.17-.929.3-1.38.1-.349.273-.675.396-1.017.036-.098.012-.217.015-.326-.118.018-.24.022-.352.056-.514.152-1.02.422-1.538.444-.648.027-1.304-.146-1.993-.237m10.621-9.272c-.139.227-.261.464-.422.672-.057.074-.206.077-.313.113-.019-.116-.08-.247-.047-.346.063-.192.192-.36.267-.55.039-.098.063-.236.024-.326-.132-.311-.688-.59-1.018-.56-.231.02-.467.023-.698.003-.342-.03-.45.041-.53.394-.019.08-.052.181-.112.222-.074.05-.23.093-.267.056-.061-.064-.081-.194-.071-.292.009-.085.083-.164.178-.337l-1.307-.06-.042.09c.168.153.345.297.503.46.494.504.621 1.205.937 1.806.098.185.075.444.072.67-.008.564.05 1.149-.074 1.689a5.873 5.873 0 01-1.42 2.662c-.18.197-.461.391-.253.739.016.027-.01.083-.022.124-.093.327-.062.374.28.375.49.002.979.002 1.467-.012.215-.006.393-.068.428-.344.027-.203.137-.374.412-.285.024.075.09.167.07.233-.11.357.127.358.351.348.245-.011.49-.083.733-.071.32.016.455-.135.517-.42.048-.219.105-.437.185-.644.029-.075.13-.135.211-.172.034-.015.15.053.148.076a9.804 9.804 0 01-.094.784c-.014.084-.066.163-.1.244.077.023.155.067.233.066.7-.01 1.4-.017 2.098-.052.105-.005.242-.13.297-.234.162-.312.282-.646.438-.962.04-.08.155-.124.235-.185.054.076.154.153.153.229-.004.275-.05.55-.064.826a.55.55 0 00.068.28c.026.049.12.089.18.084.34-.03.679-.096 1.02-.108.587-.022 1.175-.005 1.763-.026.156-.005.309-.09.51-.154l-1.443-1.498c-.119.339-.224.608-.307.883-.064.212-.222.303-.387.22-.079-.04-.13-.294-.082-.4.139-.31.334-.593.525-.918l-.7-.641c-.096.205-.15.42-.28.57-.147.172-.413.083-.37-.097.072-.29-.065-.678.395-.84l-1.514-1.491c-.176.339-.297.602-.449.845-.051.083-.18.118-.274.174-.028-.117-.105-.247-.077-.349.106-.38.246-.75.43-1.292l-1.473-1.313c-.032.016-.059.038-.088.042-.132.02-.264.036-.397.053-.012-.127-.041-.256-.033-.383.018-.285-.051-.514-.4-.67m-14.93 29.42l.138.044c.018.078.064.164.048.235a4.367 4.367 0 01-.205.697c-.06.144-.182.262-.276.392l-.318-.28c-.306.176-.29.51-.344.83-.07.428-.189.847-.276 1.273-.078.378-.145.758-.21 1.138-.106.611-.206 1.223-.306 1.834-.007.043-.016.1.005.128.047.066.112.168.172.17.54.017 1.082.034 1.62.002.12-.007.24-.195.339-.318.04-.05 0-.18.042-.212.097-.072.223-.107.337-.157.016.108.053.217.043.323-.008.088-.07.172-.134.315.22.023.402.066.58.056.405-.024.821-.025 1.208-.129.427-.114.827-.33 1.235-.51.216-.097.278-.247.162-.396l-.456.034c.028-.142.037-.292.09-.425.05-.128.132-.25.223-.355.22-.252.002-.512.021-.767.002-.023-.143-.096-.18-.075-.173.099-.43.093-.46.387-.011.12-.092.247-.176.34-.055.062-.17.071-.258.104-.03-.088-.096-.18-.085-.264.019-.151.082-.297.127-.445-.136-.043-.258-.087-.383-.121-.596-.163-.95-.003-1.087.48-.056.201-.089.516-.355.44-.334-.097-.117-.375-.045-.567.06-.158.064-.232-.13-.267-.172-.032-.299-.117-.32-.343-.041-.447-.124-.89-.198-1.333-.028-.17-.004-.278.2-.274.18.004.366.026.542-.007.48-.089.968-.165 1.43-.316.507-.165.677-.239.53-.76-.144-.045-.277-.088-.41-.127-.546-.163-.541-.161-.745.364a.314.314 0 01-.201.17c-.06.01-.202-.094-.196-.12.076-.322-.055-.538-.31-.71-.025-.016-.02-.08-.025-.122-.047-.448-.122-.896-.132-1.344a187.552 187.552 0 01-.04-3.668c-.003-.786.007-1.571.022-2.357.009-.457.05-.915.054-1.372.009-.913-.007-1.826.005-2.738.004-.332.089-.664.083-.995-.01-.592-.06-1.184-.098-1.775-.023-.366-.025-.737-.088-1.096a25.356 25.356 0 00-.428-2.032c-.065-.248-.016-.63-.427-.666-.181-.016-.366.01-.55.016-.513.016-1.028.029-1.542.05-.192.007-.395 0-.569.066-.083.031-.089.232-.168.322-.068.076-.19.103-.288.152-.036-.075-.105-.153-.1-.225.018-.256-.12-.289-.321-.266-.395.044-.79.102-1.185.121-.31.015-.57.056-.618.513.176.026.364.102.532.07.74-.142 1.362.168 1.983.483.146.074.264.202.395.305.09-.152.167-.315.277-.452.054-.067.169-.085.256-.126.036.09.124.201.099.267-.074.19-.194.362-.317.58.153.235.38.522.537.844.26.538.488 1.076.55 1.702.055.57.1 1.142-.092 1.656-.294.787-.616 1.585-1.298 2.155-.072.06-.11.278-.06.35.179.258.42.473.607.728.308.424.644.84.87 1.308.17.354.174.786.275 1.178.117.45.26.892.383 1.312l.237-.248c.05.075.158.167.14.222-.048.16-.111.382-.233.436-.182.083-.17.191-.17.327-.004.716-.006 1.433-.008 2.149 0 .065.011.132 0 .195-.121.659-.238 1.318-.159 1.993.012.098.04.194.072.343l.511-.84m-12.44-3.746c.169.184.364.414.58.622a.3.3 0 00.265.05c.314-.135.394-.104.353.239-.046.386.148.63.392.873.205.205.391.43.583.647.303.346.594.704.91 1.036.15.157.348.266.518.392.14-.32.254-.607.394-.881.03-.06.149-.1.228-.103.05 0 .127.079.146.137.049.149-.194.803-.33.869-.305.146-.156.294-.017.442.066.07.151.122.217.191.42.443.837.889 1.293 1.375.068-.148.115-.204.115-.258-.004-.265-.006-.53-.036-.792-.021-.184-.125-.184-.278-.096-.08.048-.25.063-.3.014-.06-.061-.08-.235-.036-.309.084-.138.23-.238.345-.359.072-.075.187-.155.194-.24.056-.707.094-1.415.134-2.123.024-.43.113-.872.043-1.287-.072-.434-.277-.852-.465-1.258-.309-.67-.69-1.31-.962-1.995-.132-.333-.085-.739-.119-1.112-.46-.07-.488-.184-.166-.753-.176-.132-.345-.283-.536-.397-.79-.47-1.196-1.246-1.386-2.068-.158-.684-.058-1.43-.055-2.15.004-.976.6-1.661 1.23-2.286.482-.478 1.008-.915 1.688-1.15.46-.158.87-.435 1.39-.422.137.004.279-.164.418-.254-.051-.074-.099-.21-.154-.214-.38-.02-.76 0-1.14-.02-.522-.028-.551-.014-.618.512-.002.011.003.026-.003.032l-.249.26c-.057-.103-.126-.2-.169-.309-.032-.081-.031-.176-.045-.264-.09.033-.195.048-.27.104-.996.744-2.064 1.295-3.346 1.304-.07 0-.14.077-.223.125.158.263.18.47-.146.574-.125.04-.247.093-.364.155-.067.035-.17.095-.173.148-.03.6-.046 1.2-.06 1.8-.01.48-.018.96-.017 1.44 0 .126.04.252.057.344l.353-.195c.015.129.066.267.037.385-.038.15-.152.28-.213.426-.1.242-.248.488-.262.738-.037.673.012 1.351-.022 2.024-.038.725-.166 1.446-.19 2.17-.016.5.075 1.003.126 1.504.003.035.069.064.15.134l.052-.643h.445l-.306.872m1.377-17.211c.212.053.35.119.487.115.267-.008.532-.057.799-.086.724-.079 1.449-.159 2.174-.232.171-.017.345-.003.518-.011.786-.038 1.572-.075 2.358-.117.33-.018.66-.062.991-.068.925-.015 1.851.011 2.774-.034.814-.04 1.623-.156 2.435-.233.243-.023.447-.041.291-.382-.029-.064.072-.203.137-.289.045-.058.13-.085.246-.155-.485-.475-.939-.918-1.39-1.364a.366.366 0 01-.092-.167c-.13-.547-.263-1.093-.378-1.642-.065-.314-.16-.64-.137-.952.075-1.002.572-1.85 1.069-2.69l.48-.808c-.843-.116-.862-.085-1.008.529-.024.103-.126.187-.192.28-.077-.092-.211-.18-.218-.277-.013-.166.054-.34.101-.576-.325 0-.642-.043-.94.014-.242.045-.57.06-.576.476 0 .085-.247.168-.38.252-.02-.14-.051-.279-.051-.418 0-.064.06-.128.092-.191-.244-.15-.66-.1-.857.089-.445.425-.892.848-1.336 1.274-.315.303-.635.603-.936.92-.16.169-.263.394-.429.555-.422.412-.886.783-1.295 1.208-.597.618-1.163 1.265-1.735 1.907-.14.156-.23.36-.38.504-.479.457-.985.885-1.46 1.346-.377.364-.725.76-1.162 1.223m25.138 18.337c.051-.608.086-1.32.176-2.024.075-.58.23-1.15.32-1.728a.772.772 0 00-.104-.496c-.286-.437-.603-.854-.915-1.272-.04-.054-.123-.076-.221-.133-.053.212-.08.405-.153.58-.034.08-.154.126-.235.188-.052-.07-.16-.154-.146-.207.077-.31.144-.633.29-.912.127-.246.103-.42-.056-.615-.068-.083-.144-.168-.185-.265-.246-.59-.787-.803-1.307-1.031a.59.59 0 01-.315-.727c.108-.34.415-.613.34-1.014-.046-.253-.1-.507-.116-.763-.006-.113.043-.293.122-.334.098-.05.275-.022.378.04.164.097.29.257.442.377.077.062.177.095.266.14.049-.098.105-.195.143-.298.096-.256.172-.52.284-.768.027-.061.19-.126.238-.098.072.043.156.185.133.25-.103.297-.194.62-.382.86-.15.194-.168.332-.07.517.16.303.368.587.482.905.147.41.603.541.957.504.092-.01.176-.086.264-.132-.048-.076-.081-.17-.146-.227-.627-.55-.84-1.318-.938-2.076-.086-.664-.04-1.37.343-1.991.092-.15.196-.382.143-.514-.11-.277.033-.443.133-.65.098-.2.153-.423.262-.616.034-.062.178-.063.271-.092.021.094.065.19.058.282-.009.125-.056.247-.108.454.262-.222.439-.384.629-.529.195-.148.41-.271.602-.423.047-.037.079-.162.052-.212-.046-.088-.137-.202-.22-.21a5.47 5.47 0 00-.81-.012c-.458.021-.956-.031-1.125.582-.022.08-.177.125-.27.187-.036-.095-.123-.203-.1-.282.098-.358-.102-.382-.362-.365-.076.005-.154-.006-.227.008-.199.04-.412.057-.586.149-.075.04-.046.25-.102.364-.036.073-.148.166-.21.156a.325.325 0 01-.216-.19c-.037-.115-.01-.252-.01-.376-.255-.075-.284.056-.31.225-.048.316-.12.629-.174.944-.06.341-.112.684-.167 1.026l.057.023.323-.45c.318.298.012.984-.527 1.181.02.148.048.305.058.462.011.16.01.322.004.483-.012.314-.037.627-.043.941-.002.05.055.11.099.15.273.245.304.666 0 .854-.303.188-.234.402-.2.665.028.222-.015.453-.013.68 0 .158-.008.327.044.47.135.373.292.73-.013 1.1-.052.065-.043.184-.052.278-.019.193-.029.386-.046.579l-.163 1.802.352-.031c-.09.312.092.609-.181.897-.162.17-.257.467-.264.71-.025.92-.233 1.834-.05 2.767.065.326-.04.703-.135 1.039-.125.441-.489.814-.347 1.338.015.055-.261.275-.313.248-.253-.135-.47-.04-.673.067-.11.057-.26.249-.234.308.056.126.22.29.334.286.414-.013.83-.065 1.237-.148.286-.059.405.028.376.3A34.86 34.86 0 0134 44.53c-.012.075-.14.179-.225.188a5.25 5.25 0 01-.813.026c-.431-.018-.884-.071-1.228.233-.16.141-.266.172-.444.108-.08-.03-.172-.025-.306-.042v2.083c.164.036.34.086.52.11.566.079 1.093.337 1.689.3.729-.045.746-.028 1-.732.015-.04.027-.098.057-.112.107-.048.222-.08.333-.118.032.12.097.243.086.359-.01.11-.097.213-.156.316-.11.19-.055.267.161.29.626.069 1.25.162 1.876.22.091.008.243-.11.285-.205.154-.351.263-.722.413-1.074.04-.097.168-.156.255-.232.026.13.071.262.07.393 0 .108-.056.216-.087.324l.08.03c.166-.182.347-.353.49-.551.068-.093.085-.238.084-.36 0-.168-.03-.337-.063-.503-.046-.23-.106-.455-.158-.683-.036-.156-.088-.31-.098-.468-.054-.825-.093-1.65-.147-2.475-.012-.186-.087-.369-.09-.554-.003-.283.054-.568.046-.85-.014-.483-.058-.964-.089-1.446l-.078-.02c-.032.127-.053.259-.1.38a.583.583 0 01-.165.245c-.038.03-.177.006-.202-.035-.162-.266-.01-.51.116-.725.066-.115.253-.159.431-.261m-1.996 9.955c-1.362 0-2.724-.006-4.086.001-2.216.012-4.431.033-6.647.049-.66.004-1.32-.008-1.98.007-.307.007-.613.09-.919.085-.388-.008-.788-.027-1.159-.128-.189-.052-.326-.295-.487-.453-1.297-1.27-2.598-2.535-3.888-3.812-.465-.46-.893-.96-1.354-1.425-.312-.314-.626-.634-.983-.89-.544-.392-.948-.906-1.381-1.401-.375-.428-.8-.812-1.194-1.223-.526-.548-1.027-1.122-1.572-1.65-.355-.346-.49-.677-.37-1.192.122-.515.11-1.067.113-1.603.01-2.195-.009-4.39.009-6.585.015-1.91.078-3.819.09-5.728.003-.432-.116-.864-.18-1.295-.022-.156-.045-.305.157-.368.501-.157.785-.585 1.138-.926a180.02 180.02 0 001.533-1.494c.48-.475.947-.963 1.429-1.438.38-.374.775-.734 1.16-1.104.358-.342.711-.688 1.068-1.032.638-.613 1.278-1.223 1.914-1.838.262-.254.51-.522.771-.776.346-.336.708-.656 1.048-.998.312-.315.572-.69.914-.965.342-.275.71-.59 1.226-.44.1.03.214.018.322.015 1.428-.041 2.855-.094 4.283-.123a66.957 66.957 0 012.723 0c1.471.03 2.941.107 4.412.114 1.085.006 2.171-.065 3.256-.11.113-.006.225-.062.334-.103.247-.09.426-.056.62.165a42.275 42.275 0 001.741 1.876c1.04 1.053 2.11 2.076 3.147 3.13.737.75 1.44 1.534 2.165 2.296.868.913 1.748 1.815 2.614 2.73.428.454.845.916 1.43 1.177.194.086.246.272.159.433-.248.458-.247.936-.238 1.439.014.795-.045 1.59-.058 2.387a195.04 195.04 0 00-.018 2.862c-.001 1.21.007 2.419.006 3.628 0 1.106-.01 2.212-.007 3.318.001.58.033 1.16.02 1.739-.003.13-.112.347-.21.37-.525.13-.802.575-1.159.899-.54.49-1.005 1.062-1.515 1.585-.392.4-.808.777-1.209 1.168-.604.59-1.204 1.185-1.808 1.777-.397.39-.8.774-1.196 1.164-.443.435-.878.877-1.322 1.31-.524.51-1.054 1.016-1.582 1.523-.022.022-.071.042-.07.06.04.481-.358.517-.651.689-.252.147-.48.345-.497.71-.006.119-.223.293-.37.326-.339.078-.693.093-1.043.118-.215.015-.432.003-.649.003v-.053M6.836 27.413c.145-.218.294-.355.324-.514.023-.123-.1-.275-.171-.407-.007-.012-.143.012-.154.042-.09.254-.188.513 0 .879M5.117 24.4l-.407-.587c-.085.156-.227.307-.24.469-.015.163.002.431.273.414.11-.007.209-.16.374-.296m.26 5.221c-.454.02-.894.01-1.325.07-.279.04-.372-.103-.384-.299-.017-.277.021-.56.053-.837.025-.227.152-.255.368-.204.351.084.713.141 1.073.167.227.017.404-.103.361-.379-.076-.484-.15-.968-.247-1.447-.023-.113-.154-.2-.206-.312-.058-.128-.15-.302-.105-.4.043-.094.237-.132.372-.166.143-.037.3-.024.44-.067.071-.022.12-.118.18-.181l-.065-.115c-.571 0-1.143-.015-1.713.007-.264.01-.42-.12-.427-.334-.016-.504-.024-1.018.053-1.513.075-.48.66-.785 1.105-.586.201.09.377.33.472.542.14.314.19.667.3.996.023.07.147.163.206.152a.62.62 0 00.336-.175c.308-.353.547-.785.903-1.072a2.33 2.33 0 011.647-.516c.352.025.457.19.33.51-.072.179-.137.36-.212.562-.65-.04-1.206.168-1.68.668.447.229.839.066 1.22-.047.246-.072.487-.131.63.11.126.21.222.469.227.709.004.17-.142.38-.406.196-.178-.122-.351-.127-.497.07-.13.176-.25.136-.401-.003a.739.739 0 00-.394-.166c-.335-.04-.675-.052-1.013-.06-.097-.003-.196.045-.294.07.048.111.067.269.151.323.115.074.28.072.424.098.258.047.522.073.774.142.19.053.398.59.346.82-.14.627-.263.736-.928.858-.195.035-.418.042-.415.345.002.335.118.4.444.289.299-.102.615-.16.928-.213.17-.028.325.231.292.41a.973.973 0 00-.003.424c.091.325-.148.598-.49.557-.355-.044-.713-.063-1.07-.085-.16-.01-.258.04-.18.23.067.168.116.344.191.508.206.447.022.7-.446.798-.362.074-.692-.01-1.036-.019-.195-.004-.248-.068-.133-.258.27-.443.262-.448.244-1.177m31.394-23.72c.505-.127.906-.322 1.25-.628.048-.044.061-.163.045-.237-.092-.433.17-.705.593-.6.513.128.6.327.425.836-.08.23-.091.486-.123.731-.095.724-.192 1.449-.271 2.175-.027.24.02.49-.004.731-.023.235-.174.309-.415.279-.251-.031-.509-.007-.762-.007-.216-.516.313-.877.227-1.402-.074-.447.135-.942.228-1.469-.116.02-.2.018-.267.05-.223.107-.436.233-.66.337-.223.103-.316.257-.305.508.022.499.006 1 .031 1.498.013.249-.09.378-.316.395a2.1 2.1 0 01-.589-.034c-.065-.013-.166-.186-.143-.235.275-.58.084-1.197.164-1.79.005-.039 0-.1-.025-.121-.248-.216-.5-.426-.788-.667-.21.499-.139.963-.12 1.419.014.308.073.614.095.922.014.195-.062.353-.289.345-.255-.01-.508-.058-.763-.063-.324-.008-.3-.225-.267-.43.031-.199.112-.389.146-.587.027-.155.015-.317.024-.476.024-.438.025-.88.083-1.313.057-.418.121-.824-.064-1.226-.126-.274-.048-.394.253-.409.032-.001.065.002.097 0 .199-.013.467-.11.576-.016.113.095.065.375.101.572a.38.38 0 00.102.196c.195.185.394.365.604.533.055.045.178.079.223.048.068-.046.136-.157.13-.234-.016-.19-.075-.375-.115-.563-.05-.228-.075-.445.128-.629.184-.166.353-.083.54-.016.458.165.457.16.374.637-.05.29-.095.583-.153.94m-23.408 7.305c.11-.24.239-.426.278-.63.078-.406-.197-.575-.7-.457-.274.065-.324.172-.155.396.173.229.367.442.577.691m-.64.208c-.245.159-.399.769-.227.97.193.225.429.414.644.62.092.088.183.177.27.27.106.115.2.242.313.348.158.149.221.342.061.476-.084.071-.348.05-.44-.032-.408-.365-.785-.765-1.168-1.157-.17-.174-.309-.34-.604-.18-.143.076-.362.013-.546.013a72.92 72.92 0 01-.05.102c.087.108.167.222.262.323.248.263.492.53.758.776.226.208.49.377.717.584.1.092.236.26.21.35-.05.169-.179.367-.327.434-.105.048-.333-.062-.445-.167-.636-.593-1.25-1.208-1.878-1.81-.34-.325-.698-.632-1.04-.957-.214-.205-.258-.544-.105-.665.406-.322.647-.333.855.021.235.4.591.256 1.017.296-.074-.174-.1-.317-.181-.407a2.856 2.856 0 00-.471-.395c-.2-.14-.29-.325-.149-.524a.405.405 0 01.567-.105c.248.173.455.406.676.617.05.046.085.107.164.149-.016-.391.275-.81-.16-1.15-.09-.07-.194-.24-.166-.318.078-.212.21-.41.354-.587.026-.032.229.03.306.1.226.201.398.389.727.1.22-.19.99.02 1.23.255.299.291.379.759.203 1.17-.076.175-.16.348-.214.53-.022.074 0 .197.051.248.19.186.42.334.595.531.158.176.29.387.378.606.024.06-.16.292-.24.287-.2-.012-.448-.059-.584-.19-.426-.407-.81-.858-1.205-1.295-.063-.07-.107-.157-.159-.237m40.896 8.536c.049-.204-.062-.332-.277-.363-.201-.028-.522.328-.532.587-.008.222.149.26.327.263.337.005.475-.127.482-.488m-.83 4.855c-.326-.061-.605-.143-.887-.157-.222-.01-.447.063-.67.101-.126.021-.25.046-.317.058.132-.6.261-1.145.37-1.694.05-.256-.079-.394-.345-.371-.277.023-.553.067-.83.08-.154.009-.31-.026-.464-.042.016-.13.034-.258.048-.388.03-.255.046-.513.088-.766.042-.258.251-.265.446-.24.308.04.614.098.92.155.196.037.277-.042.291-.237.046-.613.133-1.226-.127-1.821-.102-.234.13-.522.37-.514.443.017.887.033 1.33.023.493-.01.844.199 1.072.68a.867.867 0 01-.784 1.233c-.098.001-.197-.011-.292.003-.119.017-.335.057-.334.086 0 .186.027.381.1.55.017.04.242-.006.371-.02.084-.01.17-.054.25-.043.277.035.53.082.758-.181.122-.14.359.017.37.248.015.346.018.694.002 1.04-.013.279-.15.333-.379.166-.43-.315-.893-.347-1.369-.144-.087.037-.174.179-.18.278-.024.338-.014.68-.013 1.02 0 .04.01.1.037.118.276.19.154.462.168.78m-11.984-18.5c-.147.019-.256.023-.36.048-.213.053-.427.351-.382.521.056.216.458.57.643.489.141-.06.213-.297.299-.464.037-.073.022-.172.047-.254.083-.27-.096-.31-.247-.34m.6-1.005c.013-.175.044-.326.032-.472-.027-.307-.445-.438-.8-.23-.27.158-.468.094-.59-.15-.07-.14-.102-.347-.052-.489.091-.258.361-.31.593-.27.601.104 1.195.281 1.631.728.174.179.31.498.293.741a10.63 10.63 0 01-.291 1.768c-.134.548-.36 1.073-.512 1.618a6.282 6.282 0 00-.175 1.026c-.04.374-.256.519-.594.363a9.985 9.985 0 00-.235-.105c-.576-.249-.58-.259-.346-.85.09-.227.172-.457.267-.682.086-.204.076-.314-.193-.328a1.984 1.984 0 01-.688-.147c-.486-.216-.714-.912-.542-1.453.256-.809 1.198-1.417 2.027-1.07.037.015.085.002.175.002M28.978 52.042c.138.003.549-.39.523-.534a12.114 12.114 0 00-.248-1.09c-.061-.219-.195-.208-.32-.038-.144.198-.306.389-.42.604-.274.525-.035 1.05.465 1.058m1.946 1.998c-.312.027-.405-.176-.498-.396a21.14 21.14 0 00-.487-1.086c-.037-.077-.158-.171-.224-.16-.076.013-.136.132-.199.208-.012.015 0 .047-.012.063-.107.158-.217.315-.326.472-.14-.118-.279-.236-.42-.353-.196-.164-.385-.34-.598-.48-.049-.032-.233.036-.266.103-.232.466-.459.937-.65 1.421-.085.216-.18.325-.417.297-.182-.021-.37-.003-.55-.036-.086-.016-.198-.095-.227-.172-.028-.077.001-.22.06-.278.73-.702 1.084-1.636 1.538-2.506.224-.429.414-.874.618-1.313.05-.107.105-.213.136-.325.128-.474.122-.462.581-.352.19.045.398.001.59.035.1.018.266.119.265.18-.01.722.453 1.256.724 1.86.34.76.745 1.49 1.099 2.243.096.205.089.426-.247.45-.165.012-.327.081-.49.125m5.055-2.42c.155-.544.074-1.076-.058-1.619-.053-.221.02-.485.076-.72.076-.32.357-.17.544-.17.072 0 .206.187.208.29.014 1.21.008 2.42.01 3.63 0 .336.032.674.002 1.006-.022.255-.195.398-.474.364-.273-.033-.444-.216-.441-.498 0-.13-.001-.27.049-.385.298-.68.04-.891-.464-1.246-.288-.202-.593-.38-.894-.563-.048-.03-.146-.06-.167-.038a.383.383 0 00-.11.22 46.887 46.887 0 00-.038 1.599c-.001.17.023.345.065.51.066.26-.048.42-.266.51-.146.06-.31.078-.467.11-.319.065-.56-.142-.439-.426.36-.85.159-1.728.175-2.593.012-.6-.043-1.202-.078-1.802-.012-.215.09-.296.281-.307.065-.004.133.007.194-.01.45-.13.5-.124.503.341.003.602.301.99.78 1.27.329.192.675.354 1.009.528m-21.784-6.816c-.273.046-.528.066-.767.137-.152.045-.392.156-.4.253-.022.273.048.556.104.83.007.034.15.064.225.056.577-.07.965-.653.838-1.276m1.336-.397c-.003.01-.014.096-.043.175-.287.756-.568 1.515-.871 2.265-.132.326-.33.625-.466.95-.135.324-.265.658-.331 1.001-.046.237-.164.287-.327.216a6.861 6.861 0 01-.893-.476c-.152-.095-.168-.27-.014-.384.408-.303.697-.696.909-1.149.057-.124.065-.271.095-.408-.13.012-.272-.004-.39.041-.177.068-.333.192-.509.266-.088.036-.228.057-.292.01-.065-.046-.09-.185-.088-.282.009-.345.045-.69.055-1.035.006-.197-.07-.314-.3-.234-.453.156-.904.318-1.364.446-.119.033-.278-.036-.403-.091a.544.544 0 01-.238-.213c-.078-.135-.204-.335-.156-.43.094-.184.281-.29.544-.215.163.046.365 0 .538-.046 1.005-.265 2.01-.536 3.009-.82.2-.057.382-.181.572-.274.485-.238.958.062.963.687m22.783 5.561c.127.569.181 1.064.356 1.513.127.324.39.607.635.869.197.21.592.198.835.03.15-.103.31-.201.429-.335.441-.5.37-.973-.207-1.33-.083-.051-.232.006-.35.013-.21.012-.554.103-.601.02-.116-.2-.103-.48-.124-.731-.003-.04.081-.115.134-.125.347-.061.508-.331.685-.587.15-.218.323-.219.478-.015.37.484.737.96 1.306 1.247.406.205.384.285.135.671-.131.204-.207.446-.292.676-.195.527-1.062 1.259-1.55 1.239-.75-.03-1.454-.136-1.971-.832-.517-.695-.809-1.43-.74-2.287.046-.578.412-.995.796-1.394.26-.271.484-.58.76-.83.097-.089.322-.115.452-.068.262.095.478.57.417.814-.046.185-.17.351-.355.297-.38-.11-.69.011-.884.295-.178.26-.247.596-.344.85m-22.396.641c.149-.629.376-1.27 1.036-1.655.849-.495 1.746-.73 2.692-.352.334.134.621.405.9.648.167.147.082.423-.123.524-.075.036-.155.065-.225.11-.193.123-.322.083-.456-.11a1.492 1.492 0 00-1.618-.562c-.11.035-.2.137-.3.207.066.085.143.164.2.255.24.39.635.541 1.037.69.053.02.12.126.109.179-.024.123-.06.301-.146.344-.217.107-.327.514-.698.244-.352-.255-.737-.465-1.11-.688-.164-.098-.36.011-.366.22-.019.546.309 1.521.888 1.824.184.096.43.068.645.109.117.022.265.04.328.118.044.054-.021.212-.062.314-.026.066-.112.106-.143.17-.327.677-.443.548-.928.203-.39-.277-.787-.572-1.088-.937-.414-.5-.48-1.152-.572-1.854m35.725-33.816c-.344-.162-.345-.604-.71-.469-.127.048-.3.27-.275.371.053.22.219.413.338.617l.647-.52m-2.573 1.319c-.209.26-.466.494-.617.784-.243.467-.507.54-.85.16-.348-.385-.324-.364.019-.773.616-.737 1.383-1.303 2.09-1.938a8.18 8.18 0 00.79-.844c.217-.258.385-.275.658-.048.432.36.78.747.953 1.302.237.76-.125 1.297-.941 1.364-.425.035-.748-.134-1.05-.398-.097-.085-.211-.148-.317-.221l-.09.068c.059.198.073.428.185.588.26.375.098.735-.072 1.02-.2.339-.139.596.012.893.135.264.07.384-.222.409a1.55 1.55 0 01-.317-.012c-.57-.07-.697-.344-.447-.867.156-.325.267-.675.374-1.02.038-.122.007-.265.007-.397l-.165-.07M31.16 4.77c-.23-.31-.415-.213-.573-.004-.043.056-.05.223-.015.244.29.18.397-.1.588-.24m-.842 2.068c.054.578.092 1.038.141 1.497.022.209-.004.37-.258.39-.288.023-.576.06-.865.07-.246.008-.43-.307-.258-.48.306-.307.214-.681.262-1.034.026-.188-.065-.284-.26-.279-.376.01-.752.023-1.129.026-.102 0-.204-.027-.278-.037-.054-.38-.122-.727-.146-1.077-.015-.215.162-.183.305-.156.418.079.833.184 1.254.217.112.01.339-.196.345-.311.018-.353.109-.73-.15-1.059-.056-.071-.06-.29-.013-.318.128-.077.314-.152.441-.112.243.077.44.064.675-.036.3-.127 1.108.192 1.28.464.09.143-.113.568-.358.673-.214.093-.452.129-.675.203-.094.031-.176.097-.264.146.073.082.138.222.22.233.282.037.569.033.854.036.194.002.39-.028.581-.011.076.007.188.091.202.158.015.068-.05.201-.114.231-.204.097-.221.215-.152.417.034.1-.003.277-.076.343-.062.055-.223.007-.338-.01-.376-.052-.752-.112-1.226-.184m20.715 22.609c.047.203.059.424.148.606.383.785 1.587.786 2.058.092.143-.211.203-.482.288-.73.1-.296.02-.533-.279-.652-.402-.16-.808-.312-1.219-.445-.096-.031-.229.007-.33.048-.48.193-.686.556-.666 1.08m3.687.205c-.172.426-.259.923-.538 1.261-.385.468-.941.674-1.604.64-.839-.042-1.48-.397-1.964-1.037-.226-.3-.337-.687-.496-1.037-.016-.036-.022-.099-.002-.127.387-.528.345-1.311 1.056-1.666.28-.14.546-.22.836-.23 1.036-.03 2.134.674 2.541 1.627.07.162.077.35.113.526l.058.043m-2.901 4.436c-.227.24-.455.5-.703.74-.173.168-.156.397.084.5.132.056.29.062.437.078.456.048.913.082 1.368.14.097.012.184.102.278.153.064.035.16.112.192.091.33-.207.662.115.997-.015.086-.033.247.052.33.129.038.036 0 .199-.047.277-.173.281-.136.57-.072.866.017.077.04.203.003.23-.059.045-.168.044-.25.03-.433-.071-.864-.15-1.294-.233-.114-.023-.221-.077-.333-.112-.539-.167-1.074-.343-1.619-.485-.077-.02-.27.117-.285.204-.042.237-.025.485-.017.729.006.186-.045.298-.253.277-.266-.026-.54-.021-.795-.087-.232-.059-.288-.216-.186-.477.143-.362.208-.754.306-1.133.07-.269.143-.537.205-.807.073-.32.136-.644.203-.966.033-.157.053-.317.102-.469a.26.26 0 01.154-.14c.279-.085.984.18 1.195.48m-1.454 6.326c-.005.25.262.54.491.535.185-.004.75-.611.664-.779-.111-.215-.329-.407-.545-.527-.16-.088-.606.496-.61.77m-.388-1.283c-.369-.37-.769-.222-1.113.179-.056.066-.095.161-.165.195-.116.057-.313.142-.364.094a1.218 1.218 0 01-.287-.478c-.021-.059.086-.177.154-.25.1-.108.245-.18.32-.3.475-.753.576-.642 1.267-.475.932.226 1.809.578 2.54 1.247.214.195.54.286.828.376.247.078.432.421.307.665-.164.317-.647.434-.941.228-.19-.132-.385-.086-.465.112-.153.376-.35.636-.797.78-.322.103-.614.172-.94.161-.606-.019-1.075-.699-.862-1.279.154-.419.34-.826.518-1.255M6.88 32.79c-.697.038-1.315.077-1.933.104-.288.013-.577.005-.865 0-.264-.005-.275-.224-.32-.404-.057-.235.146-.242.274-.258.249-.032.503-.017.754-.033.524-.034 1.049-.062 1.57-.118.468-.05.932-.13 1.397-.205.197-.032.391-.113.586-.109.09.002.243.142.257.236.089.596.076.588-.55.737-.275.066-.553.165-.54.54a.218.218 0 01-.034.122c-.252.365-.51.726-.757 1.094-.059.088-.083.2-.124.3.11.031.23.107.328.084.398-.097.787-.23 1.183-.335.205-.055.425-.128.624-.098.128.02.324.211.322.324-.002.158-.121.389-.256.456-.374.187-.78.3-1.214.246-.612-.075-1.183.144-1.765.273-.487.108-.97.236-1.458.33-.117.023-.252-.05-.38-.08.035-.114.062-.232.106-.343a.692.692 0 01.669-.424c.661.015.97-.382 1.247-.884.228-.414.491-.807.734-1.213.051-.086.08-.187.145-.343m16.779 19.723c.217-.402.447-.798.647-1.209.302-.615.582-1.241.872-1.863.097-.208.229-.31.459-.166.05.031.125.025.189.03.45.029.459.37.3.65-.566.99-1.163 1.962-1.73 2.952-.13.227-.354.466-.14.77.011.015.008.042.007.063-.004.218-.307.404-.721.417-.226.007-.395-.084-.402-.354a.938.938 0 00-.065-.345c-.31-.7-.63-1.396-.942-2.095-.047-.106-.048-.233-.097-.337-.097-.204-.175-.437-.329-.588-.289-.285-.298-.653-.37-1.001-.013-.068.1-.19.183-.245.218-.143.77-.061.92.16.16.237.305.498.39.77.226.709.415 1.43.622 2.145.022.079.065.151.099.227l.108.02m22.656-35.766l-.531.137c-.28.071-.768-.247-.795-.551-.05-.578-.114-1.16-.094-1.738.02-.542.298-1.003.672-1.394.464-.485.997-.775 1.704-.691.537.063 1.008.202 1.347.664.143.195.33.36.507.528.2.19.214.36-.018.53-.058.042-.107.099-.162.146-.086.074-.234.22-.254.205-.114-.09-.264-.207-.283-.333-.111-.747-.882-1.152-1.517-.762-.08.05-.167.256-.134.3.176.23.395.428.588.646.104.118.246.247.263.385.027.224-.151.273-.353.24-.043-.006-.1.03-.14.06-.202.148-.33.074-.425-.13-.063-.137-.122-.28-.212-.398-.05-.067-.167-.134-.238-.12-.06.013-.13.14-.136.22-.028.42-.058.825.376 1.12.328.222.29.31-.008.622-.082.085-.112.22-.157.314m2.764 26.671c.14-.262.282-.524.42-.788.154-.294.353-.362.617-.205.412.244.506.448.282.73-.26.328-.573.614-.845.934-.186.219-.324.48-.517.692-.073.082-.278.152-.353.108-.455-.268-.659-.686-.66-1.22-.002-.209-.085-.417-.121-.626-.048-.271-.08-.545-.131-.816-.074-.395-.157-.788-.236-1.182l-.127-.036c-.244.262-.53.495-.724.79-.332.505-.55.554-1.015.134-.149-.134-.303-.262-.456-.394.166-.232.29-.444.59-.378.046.01.12-.009.15-.042.286-.31.716-.417.955-.83.16-.277.562-.429.879-.593.17-.088.337-.03.391.22.106.487.236.97.363 1.452.032.123.116.235.132.357.055.431.082.865.137 1.296.018.141.087.276.133.413l.136-.016zM18.027 6.85c-.236.008-.495-.152-.547.18-.015.098.134.319.203.317.266-.007.3-.238.344-.497m.036 1.19c.212.388.457.41.835.286.38-.123.8-.118 1.156.196.197.173.452.278.676.42.218.138.28.713.103.894-.162.163-.372.117-.548-.177-.34-.567-.929-.492-1.421-.668l-.075.105c.259.273.501.564.78.816.341.31.334.64-.055.883-.507.316-.522.282-.804-.312-.211-.442-.525-.836-.786-1.255-.358-.574-.702-1.157-1.072-1.723-.087-.132-.245-.229-.39-.309-.234-.13-.315-.32-.131-.513.162-.171.38-.299.591-.41.211-.111.453-.162.667-.269.372-.186.737-.184 1.003.034.265.217.343.67.243 1.05-.114.438-.384.73-.772.952m25.051 40.922c.514.078.932-.02 1.207-.486a.43.43 0 01.166-.153c.126-.063.334-.186.379-.144.106.098.202.287.186.425-.064.534-.586 1.032-1.075 1.1-.488.067-.986.057-1.48.08l.038-.112c-.112-.09-.217-.19-.336-.27-.567-.375-1.124-.771-1.3-1.476-.134-.544.034-1.049.368-1.484.235-.307.496-.597.768-.871.278-.28.43-.228.547.15.162.53.133.501-.252.894-.2.206-.307.527-.388.814-.029.105.111.332.225.38.107.045.312-.036.42-.126.189-.155.335-.361.5-.545.144-.16.291-.269.465-.033.018.025.05.04.075.059.47.334.462.505-.037.822-.09.057-.18.116-.262.186-.353.303-.351.304-.214.79M8.026 38.773c.042-.22.036-.532-.289-.604-.273-.06-.68-.104-.841.046-.304.284-.599.692-.662 1.087-.067.412.379.694.821.635.577-.076 1.065-.396.97-1.164m.908.104c0 .969-.92 1.98-1.81 1.956-1.265-.034-1.86-.838-1.934-2.067-.033-.553.849-1.655 1.888-1.66 1.272-.004 1.82.85 1.856 1.771" fill="#000"/><path d="M5.114 21.123c.18-.161.373-.314.542-.491.274-.287.365-.253.541.09.162.315.074.496-.178.67-.104.073-.195.163-.293.246.379.375.941.32 1.239-.104.255-.364.383-.379.71-.08.486.444.484.443.032.9a2.448 2.448 0 01-1.513.741c-.514.053-.927-.254-1.343-.523-.526-.34-.752-.862-.936-1.42-.014-.041-.043-.09-.032-.124.16-.536.06-1.134.383-1.63.183-.282.32-.305.583-.104.17.13.354.243.504.392.173.173.17.357-.045.518-.102.077-.19.176-.277.27-.22.241-.2.418.083.65M22.79 8.673c.703.013 1.094-.367 1.06-1.081-.006-.127-.175-.277-.304-.36-.31-.2-.66-.34-.963-.55-.562-.39-.717-1.217-.367-1.789.407-.662.765-.793 1.5-.587.203.057.425.051.638.06.348.015.442.165.31.482-.102.245-.165.509-.28.748-.04.086-.182.176-.274.172-.084-.004-.22-.124-.232-.208-.045-.32-.211-.447-.52-.411-.326.038-.574.252-.611.527-.054.392.056.625.368.72a1.5 1.5 0 00.502.064.85.85 0 01.843.498c.273.6.19 1.201-.005 1.792a.67.67 0 01-.348.359c-.431.175-.878.313-1.323.45-.27.084-.606-.178-.645-.48-.031-.241.137-.395.457-.416.064-.004.13.007.195.01m21.966 1.647c-.388-.324-.736-.605-1.073-.9-.196-.172-.17-.336.035-.508.205-.172.379-.458.65-.114.253.321.48.663.718.996.408.57.993.926 1.552 1.317a.723.723 0 01.253.363c.013.041-.185.15-.289.224-.042.03-.097.046-.132.082-.2.2-.38.16-.545-.042-.353-.43-.43-.447-.839-.073-.358.327-.685.688-1.038 1.022-.317.3-.643.592-.982.868-.072.058-.26.08-.316.031a4.214 4.214 0 01-.545-.616c-.028-.037.04-.183.1-.244.357-.368.713-.737 1.091-1.083.283-.258.612-.466.892-.727.183-.17.314-.395.468-.595M8.668 43.906c-.215.018-.272-.11-.352-.291-.155-.354.009-.617.151-.903.44-.88.877-1.76 1.31-2.643.094-.192.145-.408.256-.587.15-.239.286-.23.472-.018.049.055.11.101.169.148.222.177.291.303.046.577-.27.302-.405.721-.613 1.081-.285.493-.589.975-.871 1.469-.045.08-.022.198-.03.299.087 0 .188.032.26-.002.506-.235 1.003-.49 1.51-.724.46-.212.923-.415 1.392-.602.288-.114.931.337.876.632-.024.131-.253.332-.37.32-.878-.088-1.586.41-2.365.648-.556.17-1.098.387-1.648.58-.06.02-.129.011-.193.016M6.032 18.528c.019.089.015.135.033.147.44.297.879.597 1.332.874.05.03.232-.054.269-.128.094-.191-.08-.656-.274-.736-.427-.176-.874-.21-1.36-.157m2.5 2.667c-.088-.032-.185-.05-.263-.097-.664-.406-1.33-.81-1.985-1.232-.365-.236-.704-.515-1.064-.761-.148-.102-.317-.172-.479-.253-.265-.133-.342-.427-.163-.757.124-.228.312-.267.54-.106.063.044.207.062.257.022.279-.224.598-.216.923-.211.82.01 1.495.353 2.016.965.273.321.416.715.354 1.173-.019.143.145.308.215.468.057.128.176.325.13.38-.123.155-.15.474-.48.409m33.774 23.642c.33-.358.583-.648.855-.919.242-.242.44-.214.642.068a.783.783 0 01.134.257c.122.504.556.734.89 1.056.38.367.731.764 1.11 1.133.202.198.437.363.632.523.3-.293.574-.537.82-.807.11-.122.152-.302.247-.44.068-.1.204-.26.256-.241.212.077.404.21.604.324-.07.122-.115.27-.213.36-.457.423-.936.822-1.392 1.246-.093.086-.113.249-.182.367-.06.103-.128.252-.218.274-.094.023-.246-.055-.324-.136-.163-.17-.299-.368-.439-.559-.612-.834-1.41-1.472-2.216-2.096-.174-.134-.439-.15-.66-.224-.174-.057-.347-.118-.546-.186m-28.571-34.5c-.28.19-.533.365-.791.532-.178.115-.353.15-.524-.029-.182-.19-.02-.311.075-.447a.385.385 0 01.091-.092c.448-.322.91-.627 1.342-.97.278-.222.503-.509.767-.75.108-.1.255-.155.385-.23.05.135.104.269.149.406.148.452-.199.638-.479.822-.345.228-.406.43-.124.745.358.401.72.799 1.099 1.18.353.356.729.69 1.098 1.031.226.209.206.392-.068.528-.578.29-.668.257-1.018-.262-.174-.257-.389-.486-.584-.727l-1.242-1.532c-.047-.058-.097-.113-.176-.205m-3.96 6.543c-.278.116-.53.222-.783.326-.233.096-.283.345-.057.43.374.142.777.23 1.174.27.115.011.246-.23.382-.339.13-.104.344-.298.404-.262.186.116.334.31.455.502.022.034-.135.254-.242.288-.498.16-1.002.37-1.513.397a1.672 1.672 0 01-1.51-.772c-.271-.414-.559-.835-.568-1.374-.006-.36.033-.682.343-.913.138-.102.26-.245.413-.304.133-.052.334-.067.448 0 .195.114.054.278-.029.416-.097.16-.206.318-.278.49-.036.09-.041.266.008.299.08.053.232.056.324.015.164-.073.303-.202.458-.297.278-.17.435-.093.488.235.031.19.054.38.083.593" fill="#000"/><path d="M47.429 44.877c-.013.063-.006.145-.042.186-.226.25-.452.501-.705.721-.043.037-.257-.048-.326-.132-.391-.48-.743-.994-1.149-1.46-.267-.307-.595-.563-.909-.826-.356-.3-.35-.5.046-.734.036-.021.067-.053.098-.083.37-.348.573-.321.863.099.243.352.52.683.742 1.049.252.417.709.482 1.069.712.15.096.25.27.372.41l-.06.058M16.247 10.19c.01.511.106.604.601.585.054-.002.118.015.16-.007.1-.054.23-.106.28-.196.165-.304.033-.53-.412-.755-.434-.22-.638-.1-.63.373m.436 1.348c-.605-.036-.914-.234-1.217-1.124-.152-.448-.164-.812.159-1.158.077-.083.179-.174.283-.197.291-.064.588-.107.885-.137.406-.041.645.12.782.512.114.322.248.64.32.972.118.538.002.725-.495.94-.147.062-.289.136-.439.188-.068.023-.15.004-.278.004m37.581 21.704l-1.416-.276c-.124-.024-.25-.065-.375-.067-.636-.007-1.273-.015-1.91.002-.25.007-.48-.072-.477-.302a.838.838 0 01.3-.586c.138-.102.398-.056.601-.046.49.026.979.074 1.469.103.201.012.404-.007.607.001.467.017.934.042 1.401.065.173.008.291.067.269.276-.007.06.034.123.047.187.117.599.116.599-.516.643M20.933 5.403c-.033.576.277 1.047.452 1.56.107.31.231.614.349.92.084.22.008.328-.225.345-.094.007-.19.031-.28.065-.274.104-.44.008-.515-.264-.11-.4-.236-.798-.373-1.19-.214-.612-.45-1.217-.662-1.83-.096-.278 0-.41.288-.463.599-.11.6-.11.826.462.051.13.094.263.14.395M35.642 43.9c.144.35.128.667-.061.975-.027.043-.05.113-.033.154.106.263.154.624.352.76.403.274.207.613.224.93a.481.481 0 01-.093.3c-.065.081-.181.12-.275.178-.039-.08-.081-.158-.115-.24-.011-.028-.005-.065-.001-.097.032-.254.118-.515.085-.76-.03-.224-.188-.43-.283-.633-.094-.008-.24.02-.324-.041-.058-.042-.05-.209-.034-.313.045-.285.098-.57.173-.848.049-.182.056-.44.385-.366m-.875-1.33c-.317-.057-.376-.222-.336-.407.058-.27.132-.542.25-.788.049-.1.258-.215.347-.184.16.055.241.21.157.424-.073.183-.052.404-.124.587-.056.14-.193.247-.294.368m2.573 1.326c.047.176.138.332.115.47-.048.286-.118.583-.253.837-.09.169-.507.015-.461-.168.096-.386.269-.753.424-1.122.013-.03.133-.014.175-.017m-1.438-4.391c-.272.064-.38-.13-.347-.322.067-.382.192-.756.315-1.125.023-.07.15-.103.23-.153.039.09.124.189.109.268-.086.434-.197.864-.307 1.332m-2.878 7.541c.1-.383.187-.77.31-1.145.025-.075.186-.106.284-.157.032.083.106.176.088.246-.08.316-.174.631-.291.936-.033.087-.162.137-.246.204l-.145-.084m2.197-12.208c.052-.182.085-.372.163-.54.032-.07.18-.148.241-.126.085.032.185.147.196.236.029.234.034.475.004.708-.01.08-.187.22-.231.202-.133-.058-.246-.173-.348-.283-.027-.029.014-.121.023-.185l-.048-.012m.765-10.435c.234.239.373.415.187.699-.087.133-.073.327-.13.485-.031.085-.114.151-.173.226-.076-.067-.208-.127-.217-.202-.05-.428.09-.81.333-1.208M34.396 37.6c.068-.258.124-.518.21-.768.025-.071.139-.11.212-.165.051.07.139.139.145.213.012.142-.017.289-.04.432-.023.135-.043.276-.1.398-.048.106-.146.188-.223.281-.058-.096-.12-.19-.174-.289-.014-.025-.002-.064-.002-.096a4.32 4.32 0 00-.028-.007m2.356-12.246c.04.116.119.222.098.3-.08.296-.177.59-.3.869-.032.072-.184.09-.281.134-.025-.101-.1-.227-.066-.298.158-.326.095-.766.549-1.005m-1.547 6.989c-.051.264-.097.448-.12.634-.014.117.01.238.012.357.002.083.03.2-.013.244a.572.572 0 01-.315.176c-.05.005-.182-.168-.168-.238.073-.352.174-.7.288-1.042.017-.053.152-.067.316-.131m.369 8.391c.117-.236.222-.464.347-.681.026-.046.135-.084.184-.066.057.02.134.114.127.164-.037.239-.075.483-.163.706-.04.098-.199.148-.304.22l-.191-.343m1.009-4.942c-.147.355-.27.669-.413.973-.021.045-.182.081-.204.056-.053-.06-.098-.168-.08-.24a7.42 7.42 0 01.267-.836c.03-.078.164-.19.206-.173.09.036.153.145.224.22m.437 5.926c-.062.211-.085.364-.153.495-.05.097-.157.166-.238.248-.076-.098-.205-.19-.215-.294a1.14 1.14 0 01.08-.534c.042-.098.228-.228.293-.202.107.043.17.2.234.287m-.064-6.87c.008-.075-.005-.162.029-.223.096-.176.134-.473.427-.38.284.092.144.327.093.516-.014.052-.007.118-.037.156-.086.113-.187.215-.282.321l-.288-.333.058-.057zm-1.314-8.137c-.084.324-.148.59-.224.854-.01.034-.095.083-.118.072-.058-.028-.125-.08-.145-.136a.933.933 0 01.108-.858c.048-.074.186-.16.246-.137.073.026.107.16.133.205m1.897 10.18c-.07.254-.111.464-.19.658-.025.064-.156.132-.224.12-.064-.012-.158-.132-.152-.197.017-.199.053-.403.128-.586.049-.12.177-.207.27-.31l.167.316m-6.255 10.187c-.068-.177-.13-.256-.114-.312.054-.181.11-.375.22-.524.071-.098.27-.206.353-.17.17.072.177.25.047.404-.145.174-.29.347-.506.602m2.979-6.72c-.062-.187-.163-.37-.176-.56-.013-.186.057-.38.108-.566.016-.057.088-.099.134-.148.039.053.113.107.111.158-.01.362-.035.724-.055 1.086l-.122.03m1.267-8.348c.163-.15.262-.24.36-.332.085.1.246.21.234.296-.014.112-.152.237-.267.292-.045.021-.173-.132-.326-.256M22.583 12.863c-.081.205-.14.4-.234.577a3.903 3.903 0 01-.425.674c-.069.083-.258.133-.363.1-.16-.049-.108-.178-.029-.31.185-.307.34-.633.517-.945a.87.87 0 01.207-.237c.052-.042.154-.086.196-.062.06.035.088.13.131.203m.639 1.868c-.135.309-.256.626-.417.92-.04.073-.253.135-.31.094-.078-.055-.138-.233-.108-.327.107-.332.245-.656.394-.972.035-.075.16-.107.245-.16.051.086.114.167.15.258.016.04-.02.102-.031.154l.077.033zm-4.397.774c-.054.125-.082.217-.13.296-.131.21-.256.426-.413.615-.075.092-.216.128-.328.19-.028-.132-.12-.296-.072-.39.165-.323.373-.625.576-.928.033-.049.167-.096.18-.08.075.09.129.198.187.297m2.537 1.265c-.176.39-.042.882-.564.995-.103.022-.217-.007-.326-.013.017-.1.011-.21.055-.297.123-.248.259-.49.406-.724.045-.072.155-.164.213-.15.085.02.15.126.216.19m-.786-3.738c.095.185.211.318.182.373-.184.341-.166.821-.624.98-.075.026-.2.03-.247-.015-.053-.053-.091-.198-.056-.252.219-.346.46-.677.745-1.086m1.421 5.474c-.221.334-.442.681-.681 1.015-.032.044-.156.02-.237.029-.008-.088-.051-.194-.017-.26.167-.325.348-.643.54-.953.042-.067.151-.09.23-.135l.165.304m-3.276-.473c-.114-.031-.286-.03-.324-.101-.044-.081.017-.233.057-.344.084-.23.17-.463.285-.677.05-.094.178-.147.27-.218.036.121.121.253.098.36-.045.205-.153.395-.233.591-.044.107-.085.215-.153.389m1.565-1.724c-.213-.004-.34-.043-.232-.248.144-.27.29-.54.449-.801.03-.05.153-.1.182-.08.06.043.133.15.115.203a7.764 7.764 0 01-.331.848c-.025.055-.147.065-.183.079m-1.348 2.846c.12-.251.224-.506.365-.739.035-.058.216-.096.273-.058.077.052.162.209.136.281a3.06 3.06 0 01-.337.647c-.05.073-.183.12-.277.117-.048-.002-.093-.138-.16-.248m-1.848-1.65l-.69.897c-.08-.072-.24-.183-.227-.209.14-.285.299-.564.476-.828.039-.059.173-.08.258-.072.05.005.092.102.182.212m6.31 1.598c.15-.278.28-.53.428-.773.026-.043.153-.076.184-.051.057.045.122.15.105.207-.08.276-.177.547-.29.812-.016.04-.16.067-.214.04-.078-.04-.128-.136-.213-.235m-5.773-.197c-.165.244-.317.484-.488.71-.026.035-.152.033-.2 0-.048-.03-.094-.14-.073-.185.109-.239.229-.473.367-.696.041-.067.152-.09.231-.134l.163.305m-2.639.227c-.145.183-.273.352-.41.514-.07.083-.15.209-.236.218-.145.014-.3-.072-.203-.26.112-.218.249-.429.404-.619.05-.061.198-.076.29-.058.06.012.098.124.155.205m8.27-1.967c-.094.245-.16.467-.268.667-.032.06-.246.1-.267.07-.07-.1-.145-.25-.116-.35.049-.17.163-.325.275-.466.046-.057.164-.091.239-.079.056.01.098.11.137.158M11.836 32.29c.142.473-.18.772-.372 1.102-.038.066-.175.114-.257.102-.057-.009-.139-.133-.138-.205.002-.42.13-.801.418-1.115.05-.055.162-.114.213-.093.063.027.092.135.136.208m1.538 6.064c-.295-.029-.347-.157-.29-.332.09-.27.181-.546.318-.793.074-.135.282-.33.365-.302.225.075.138.284.072.465-.068.185-.086.39-.168.569-.067.145-.196.263-.297.393m.331-5.503c-.089.29-.134.573-.264.807-.058.104-.322.195-.431.148-.21-.09-.058-.269.006-.411.093-.204.168-.418.276-.612.044-.08.168-.175.237-.162.07.014.119.15.176.23m.642 1.74c-.077.284-.124.514-.204.733-.07.195-.254.206-.395.114-.07-.046-.105-.216-.084-.315.042-.195.115-.39.213-.564.06-.106.19-.173.29-.257l.18.288m-1.671 1.016c.023.107.067.214.065.321a3.11 3.11 0 01-.058.603c-.02.092-.103.215-.183.239-.118.035-.26-.005-.39-.013.014-.132 0-.275.048-.394.106-.27.242-.527.366-.79l.152.034m-1.294-.255c.12-.425.215-.801.336-1.169.021-.064.146-.115.23-.128.04-.006.122.08.142.14.07.204-.22 1.004-.402 1.116-.056.033-.14.021-.306.042m1.464-8.414c-.018-.118-.078-.25-.045-.351.086-.26.206-.509.332-.752.026-.05.158-.092.207-.068.06.029.131.152.112.201-.127.335-.277.662-.42.991l-.186-.02m-.771.139c-.04.306-.045.593-.129.856-.033.106-.239.157-.366.233-.037-.116-.11-.233-.105-.347.02-.373.31-.73.6-.742m2.476 12.056c-.061.22-.081.412-.17.562-.048.079-.22.117-.33.11-.051-.003-.142-.168-.129-.245.03-.176.089-.357.181-.51.054-.088.195-.123.298-.182l.15.265m.898-.844c-.066-.152-.152-.253-.133-.325.055-.203.14-.402.243-.585.032-.058.158-.08.242-.082.024 0 .078.133.07.2-.023.177-.052.36-.118.523-.037.089-.156.143-.304.269M12.6 28.737c.144.223.04.816-.16.92-.147.076-.275.057-.282-.158-.007-.209.216-.608.441-.762m2.687 7.149c-.044.201-.05.37-.122.504-.04.073-.228.15-.278.116a.378.378 0 01-.137-.3c.012-.128.087-.261.165-.37.049-.068.159-.139.23-.129.061.01.106.13.142.179m-2.618-3.957c-.092-.152-.04-.764.084-.852.043-.03.145-.046.173-.02.07.07.149.16.163.253.03.2-.204.52-.42.619m3.832 7.323c-.047.246-.103.434-.366.39-.076-.013-.175-.158-.184-.251-.022-.22.218-.51.358-.447.091.042.13.201.192.308m6.64-15.174c.03.472-.115.904-.37 1.293-.045.07-.248.035-.378.048-.003-.116-.04-.247-.001-.346.1-.246.224-.483.359-.713.074-.127.187-.23.283-.344l.106.062m-.469 23.195c.182-.282.341-.542.52-.788.023-.031.192-.014.22.029a.614.614 0 01.102.333c-.004.12-.074.237-.11.356-.078.253-.292.305-.507.316-.058.002-.122-.13-.224-.246m2.526-.018c-.276-.056-.405-.24-.326-.428.08-.187.163-.376.274-.545.047-.07.182-.143.253-.124.138.037.237.135.149.32-.049.1-.019.24-.067.34-.075.155-.187.292-.283.437m-.937-15.321c-.118.298-.03.674-.356.887-.056.037-.27-.052-.268-.06.042-.256.074-.522.173-.758.038-.09.24-.11.366-.162l.085.093m-.666-6.818c.25.133.318.238.21.433-.113.205-.175.438-.288.642-.04.073-.165.1-.251.148-.025-.102-.096-.22-.067-.3.112-.309.256-.604.396-.923m-.917 3.617c-.101-.569.07-1.028.418-1.124.15.511-.075 1.115-.418 1.124m-.611 17.786c.103-.188.212-.403.34-.607.023-.036.156-.053.182-.025.05.054.095.152.082.22a5.54 5.54 0 01-.174.67c-.02.06-.086.13-.144.145-.05.012-.142-.033-.173-.08-.05-.077-.065-.176-.113-.323m.511-12.742c-.18-.443.078-.927.444-.885.092.628.058.697-.444.885m.055 10.433c.32.138.497.246.335.55-.036.07.005.18-.029.252-.038.083-.114.195-.183.202-.065.006-.202-.109-.202-.17.002-.255.044-.51.079-.834m-.202-12.722c.081.341-.17.362-.378.375-.07.004-.197-.126-.21-.209-.031-.19.228-.53.35-.482.118.044.207.165.31.252l-.071.064m1.409-1.628c-.067.241-.103.467-.199.664-.037.076-.208.086-.318.127-.012-.109-.058-.227-.028-.323a2.85 2.85 0 01.24-.523c.034-.06.113-.096.17-.143l.135.198m-.09 5.291c0-.156-.022-.317.009-.466.015-.074.153-.192.192-.177.09.035.198.128.22.217.053.217-.143.409-.421.426m-.385 3.398l.388-.437c.052.065.163.151.148.191-.065.175-.166.335-.254.501l-.282-.255m.761 1.214l-.412.368c-.06-.074-.184-.177-.167-.216a.718.718 0 01.258-.309c.046-.028.175.081.321.157m13.382-23.717c.201-.515.39-1.012.594-1.5.02-.05.18-.1.203-.077.077.075.173.188.167.28-.013.187-.07.378-.141.555a9.114 9.114 0 01-.388.833c-.054.102-.157.178-.238.265l-.197-.356m2.15.127c-.148.241-.291.504-.468.743-.037.049-.214.035-.296-.008-.06-.03-.12-.175-.096-.238.12-.315.258-.623.413-.922.016-.029.22-.008.283.05.075.069.093.202.164.375m-2.609 1.732c.152-.293.298-.585.46-.868.011-.02.182.007.204.05a.577.577 0 01.065.327c-.046.29-.105.58-.19.86-.058.193-.22.215-.345.068-.089-.105-.12-.26-.194-.437m-.159-6.178c-.045.193-.082.389-.14.578-.06.205-.114.422-.223.601-.071.117-.236.177-.359.263-.017-.111-.076-.234-.046-.33.1-.323.218-.643.36-.95.05-.108.187-.175.285-.261l.124.1zm3.129 1.978c-.218.387-.375.682-.552.965-.03.047-.17.076-.219.047-.083-.05-.174-.145-.192-.234-.04-.207.378-.834.585-.878.088-.019.195.048.378.1m-2.491-.113c.029.135.092.275.079.406-.024.232-.086.46-.152.685-.02.066-.116.163-.165.156-.105-.014-.237-.06-.296-.14-.131-.178.15-.98.355-1.067.03-.012.063-.014.18-.04m3.52 3.958c-.147-.062-.325-.086-.388-.184-.048-.075.036-.25.085-.37.06-.149.129-.301.227-.425.065-.083.188-.12.285-.178.033.133.115.278.087.396-.056.235-.173.456-.296.762m-1.053.308c-.106.24-.194.467-.309.681-.025.047-.192.08-.207.059-.074-.108-.178-.244-.163-.355.029-.207.115-.413.214-.6.04-.073.234-.153.258-.129.09.09.139.22.207.344m-3.317-1.55c-.057.245-.061.469-.163.631-.067.108-.293.202-.413.171-.164-.042-.206-.228-.095-.4.104-.16.19-.334.309-.483.05-.064.169-.116.245-.103.054.009.088.135.117.184m-.959-1.536c.068-.22.109-.422.197-.601.033-.069.22-.141.259-.111.095.076.228.24.2.313-.095.24-.25.459-.393.679-.019.03-.135.04-.142.025-.05-.1-.084-.208-.12-.305m.011 3.602c-.111.251-.19.468-.307.662-.029.047-.23.057-.272.011-.06-.064-.07-.202-.055-.3.022-.146.115-.283.126-.427.014-.187.114-.283.26-.235.102.033.166.187.248.289M46.645 28.78c.054.092.163.193.145.26a3.915 3.915 0 01-.27.716c-.027.056-.184.11-.234.08-.066-.037-.135-.175-.113-.24.088-.256.209-.5.324-.747.013-.028.072-.035.148-.07M45.38 31.97c-.242-.08-.373-.467-.251-.592.031-.032.104-.06.137-.045.048.023.104.084.109.133.014.156.005.313.005.505m-30.494-8.453c-.344-.004-.523-.154-.514-.43.01-.27.271-.49.577-.485.214.004.448.226.446.423-.003.226-.28.494-.509.492m29.959-2.36c.224.154.435.255.58.416.076.084.034.275.045.418-.176.006-.357.041-.526.01-.113-.022-.227-.123-.307-.217-.074-.086-.167-.234-.137-.311.042-.11.188-.18.345-.316m-3.102 6.732c.146.03.358.027.511.121.11.067.185.26.196.402.02.242-.19.293-.352.225-.224-.094-.46-.223-.616-.402-.15-.172-.022-.342.261-.347" fill="#000"/></g></svg>