<svg width="18" height="18" xmlns="http://www.w3.org/2000/svg"><g fill="#FFF" fill-rule="evenodd"><path d="M18 7.826h-1.565a6.268 6.268 0 00-6.261-6.26V0A7.835 7.835 0 0118 7.826z"/><path d="M14.87 7.826h-1.566a3.13 3.13 0 00-3.13-3.13V3.13a4.7 4.7 0 014.696 4.696zm-3.505 3.499l-1.827 1.8-4.663-4.663 1.8-1.827a.783.783 0 00.161-.857L4.962 1.403a.783.783 0 00-.92-.447L.6 1.865a.783.783 0 00-.586.783 16.549 16.549 0 004.683 10.656 16.549 16.549 0 0010.66 4.683.783.783 0 00.782-.586l.91-3.444a.783.783 0 00-.448-.92l-4.375-1.874a.783.783 0 00-.86.162z"/></g></svg>