
<svg width="18px" height="23px" viewBox="0 0 18 23" version="1.1" xmlns="http://www.w3.org/2000/svg" xmlns:xlink="http://www.w3.org/1999/xlink">
    <g id="Page-1" stroke="none" stroke-width="1" fill="none" fill-rule="evenodd">
        <g id="Benediktinky_sk_kontakt" transform="translate(-108.000000, -307.000000)" fill="#FFFFFF" fill-rule="nonzero">
            <path d="M117,307 C112.6,307 108,310.4 108,316 C108,321.3 116,329.4 116.3,329.7 C116.5,329.9 116.7,330 117,330 C117.3,330 117.5,329.9 117.7,329.7 C118,329.4 126,321.3 126,316 C126,310.4 121.4,307 117,307 Z M117,319 C115.3,319 114,317.7 114,316 C114,314.3 115.3,313 117,313 C118.7,313 120,314.3 120,316 C120,317.7 118.7,319 117,319 Z" id="Shape"></path>
        </g>
    </g>
</svg>
